<svg version="1.1" id="Layer_1" xmlns="http://www.w3.org/2000/svg" xmlns:xlink="http://www.w3.org/1999/xlink" x="0px" y="0px"
	 width="100%" viewBox="0 0 2226 1130" enable-background="new 0 0 2226 1130" xml:space="preserve">
<path fill="#FEFFFE" opacity="1.000000" stroke="none" 
	d="
M1.000000,706.000000 
	C1.000000,471.014038 1.000000,236.028076 1.000000,1.021053 
	C742.941650,1.021053 1484.883301,1.021053 2226.912598,1.021053 
	C2226.912598,377.585785 2226.912598,754.171631 2226.912598,1130.878662 
	C1485.000000,1130.878662 743.000000,1130.878662 1.000003,1130.877075 
	C1.000000,989.884277 1.000000,848.893005 1.288276,707.688477 
	C16.392273,765.119751 30.761576,822.884094 46.175308,880.368347 
	C57.065437,920.982178 69.398216,961.208679 80.993385,1001.634888 
	C81.934647,1004.916626 83.520073,1006.640442 87.025314,1006.930115 
	C97.973053,1007.834900 108.892563,1009.095825 119.845398,1009.921753 
	C144.919403,1011.812195 170.003677,1013.569763 195.089249,1015.302002 
	C232.469681,1017.883240 269.850067,1020.469238 307.239532,1022.914368 
	C336.489929,1024.827271 365.754913,1026.516968 395.012024,1028.328125 
	C431.084137,1030.561035 467.153412,1032.839966 503.226593,1035.056030 
	C532.319031,1036.843384 561.416016,1038.557861 590.510071,1040.320190 
	C627.410217,1042.555054 664.308228,1044.825439 701.209412,1047.042969 
	C725.813904,1048.521606 750.423706,1049.912720 775.028809,1051.381592 
	C811.599243,1053.564697 848.165955,1055.812012 884.737610,1057.974121 
	C909.841064,1059.458252 934.953064,1060.798340 960.056335,1062.284180 
	C1002.447021,1064.793335 1044.831543,1067.407593 1087.223267,1069.899048 
	C1113.661011,1071.453003 1140.110474,1072.809448 1166.548950,1074.350708 
	C1203.289185,1076.492554 1240.021973,1078.766724 1276.762573,1080.903320 
	C1303.199219,1082.440796 1329.645508,1083.810181 1356.083862,1085.319214 
	C1394.992798,1087.540039 1433.897949,1089.829590 1472.805908,1092.068604 
	C1497.745361,1093.503906 1522.688477,1094.877319 1547.627441,1096.320801 
	C1585.701904,1098.524292 1623.772705,1100.793823 1661.848267,1102.978760 
	C1687.787476,1104.467529 1713.733887,1105.828369 1739.673950,1107.303467 
	C1778.747925,1109.525146 1817.818481,1111.810181 1856.891846,1114.042236 
	C1882.165039,1115.485962 1907.442139,1116.860718 1932.715332,1118.305542 
	C1971.788086,1120.539062 2010.859619,1122.795044 2049.930420,1125.063110 
	C2070.545898,1126.259766 2091.157715,1127.524048 2111.773682,1128.713745 
	C2120.042969,1129.191040 2128.319092,1129.550049 2136.669678,1129.966797 
	C2166.510742,988.476746 2196.248535,847.475220 2226.147461,705.710205 
	C1907.328979,705.710205 1588.975220,705.710205 1270.379150,705.710205 
	C1270.964722,731.126953 1271.552734,756.644409 1272.164429,783.189270 
	C1269.873047,781.339478 1268.432373,780.288269 1267.117188,779.098267 
	C1240.805298,755.291077 1214.440918,731.540771 1188.288086,707.559814 
	C1184.840576,704.398621 1181.574829,703.012390 1176.880859,703.033081 
	C1108.889038,703.331360 1040.896240,703.415771 972.903687,703.592102 
	C848.415771,703.915039 723.927856,704.287781 599.439880,704.598206 
	C433.788361,705.011292 268.136810,705.385315 102.485260,705.774353 
	C68.656845,705.853760 34.828419,705.924988 1.000000,706.000000 
M970.057556,292.442352 
	C953.034973,275.949127 936.012329,259.455902 918.070129,242.071655 
	C918.070129,390.081848 918.070129,536.324585 918.070129,682.716797 
	C955.211853,682.716797 992.069275,682.716797 1029.604980,682.716797 
	C1029.604980,628.266907 1029.604980,574.247803 1029.604980,519.159790 
	C1032.317139,521.363770 1034.230347,522.678650 1035.862061,524.280396 
	C1061.421875,549.369812 1086.994263,574.446838 1112.463867,599.627563 
	C1139.122314,625.983398 1165.807495,652.314392 1192.223755,678.911804 
	C1208.884644,695.687134 1225.024414,712.979248 1241.524902,729.915771 
	C1244.107056,732.566101 1247.366699,734.556458 1250.692383,737.147522 
	C1250.692383,589.827393 1250.692383,443.455017 1250.692383,297.115051 
	C1213.607178,297.115051 1177.033203,297.115051 1139.776733,297.115051 
	C1139.776733,351.461273 1139.776733,405.426392 1139.776733,459.391541 
	C1139.350464,459.589722 1138.924194,459.787903 1138.497925,459.986115 
	C1082.524292,404.298187 1026.550659,348.610260 970.057556,292.442352 
M1733.500000,683.017334 
	C1764.145874,682.684753 1794.812622,682.922058 1825.429321,681.795776 
	C1842.518433,681.167175 1858.860474,676.043091 1873.689209,667.096191 
	C1901.987671,650.022156 1913.723755,623.170349 1915.735474,591.816589 
	C1917.140015,569.926086 1916.654541,547.842896 1915.751709,525.897644 
	C1914.976318,507.055237 1909.822388,489.090240 1898.797485,473.356171 
	C1885.217285,453.975464 1865.598022,444.173401 1843.185669,439.051483 
	C1818.766846,433.471130 1793.942261,433.734772 1769.116943,434.086792 
	C1747.295776,434.396240 1725.474609,434.714569 1703.652466,434.924042 
	C1700.758911,434.951813 1697.859131,434.360474 1695.052612,434.065338 
	C1695.052612,426.188019 1695.253906,419.032104 1694.972412,411.895264 
	C1694.819336,408.011230 1696.404663,407.059570 1699.926147,407.082031 
	C1731.251099,407.281830 1762.577637,407.275391 1793.901367,407.574860 
	C1800.776733,407.640594 1806.585083,406.030243 1811.566162,401.116241 
	C1842.050659,371.042389 1872.636353,341.071075 1903.110474,310.986725 
	C1907.311035,306.839844 1911.079712,302.255493 1915.756470,297.091949 
	C1913.112183,296.913940 1911.698730,296.735229 1910.285278,296.735626 
	C1837.622681,296.755280 1764.959595,296.659729 1692.298218,296.965820 
	C1681.549072,297.011108 1670.643921,298.122986 1660.092285,300.182678 
	C1621.847168,307.648224 1596.040405,329.592438 1587.804565,368.284576 
	C1580.140259,404.291260 1580.546875,440.848633 1588.422852,476.864410 
	C1593.339600,499.348083 1605.789673,517.425049 1626.098022,529.318970 
	C1643.623535,539.583130 1663.014404,544.089722 1682.899292,544.690674 
	C1710.677856,545.530090 1738.508667,544.622131 1766.317261,544.503723 
	C1779.083130,544.449341 1791.849609,544.494507 1804.841309,544.494507 
	C1804.841309,554.693909 1804.841309,563.436401 1804.841309,572.729309 
	C1731.137451,572.729309 1657.738770,572.729309 1583.775635,572.729309 
	C1583.775635,609.789551 1583.775635,646.299622 1583.775635,683.017151 
	C1633.532349,683.017151 1683.016113,683.017151 1733.500000,683.017334 
M1556.109131,397.465698 
	C1556.109131,364.035522 1556.109131,330.605347 1556.109131,297.095215 
	C1463.146362,297.095215 1371.052734,297.095215 1278.577881,297.095215 
	C1278.577881,425.793304 1278.577881,554.177063 1278.577881,682.618958 
	C1371.166992,682.618958 1463.521240,682.618958 1555.742676,682.618958 
	C1555.742676,645.882446 1555.742676,609.620789 1555.742676,572.791504 
	C1553.255249,572.791504 1551.129395,572.777283 1549.003662,572.793640 
	C1509.013916,573.101440 1469.024292,573.558960 1429.034180,573.633423 
	C1417.229736,573.655396 1405.418091,572.679321 1393.625000,571.922546 
	C1392.264282,571.835205 1389.904541,570.255981 1389.867432,569.296753 
	C1389.561523,561.371582 1389.694336,553.429443 1389.694336,544.906128 
	C1445.639404,544.906128 1500.699951,544.906128 1555.776978,544.906128 
	C1555.776978,508.037292 1555.776978,471.778442 1555.776978,434.793182 
	C1550.847534,434.793182 1546.233154,434.761627 1541.619263,434.798157 
	C1504.129150,435.095062 1466.639282,435.553986 1429.148804,435.622681 
	C1417.342529,435.644318 1405.529297,434.710449 1393.733765,433.980835 
	C1392.351929,433.895386 1389.942261,432.365234 1389.906006,431.431152 
	C1389.597900,423.503937 1389.729858,415.559662 1389.729858,407.002136 
	C1445.634521,407.002136 1500.692261,407.002136 1556.109741,407.002136 
	C1556.109741,403.732819 1556.109741,401.093628 1556.109131,397.465698 
M1807.419678,166.088104 
	C1840.537964,180.904800 1873.642700,195.751511 1906.777832,210.530533 
	C1947.964844,228.900894 1989.160156,247.252533 2030.390747,265.524780 
	C2039.397217,269.516174 2048.583252,272.005524 2058.794922,271.891724 
	C2110.451416,271.316071 2162.114258,271.309113 2213.774902,271.103790 
	C2215.336914,271.097595 2216.898926,271.102997 2218.460938,271.102997 
	C2217.648438,269.615051 2216.749512,268.963013 2215.775146,268.456573 
	C2199.383545,259.938110 2183.074707,251.253647 2166.567871,242.964172 
	C2075.834961,197.399567 1985.151855,151.733368 1894.255249,106.497131 
	C1825.557373,72.308464 1756.537231,38.767265 1687.756470,4.744112 
	C1682.425537,2.107094 1678.162598,2.144757 1672.898682,4.783349 
	C1637.640747,22.456457 1602.171143,39.707336 1566.906372,57.366867 
	C1496.821289,92.463295 1426.868774,127.824402 1356.777588,162.908646 
	C1290.229736,196.219330 1223.568848,229.304428 1156.979126,262.531677 
	C1152.316650,264.858215 1147.832031,267.540833 1143.264648,270.057861 
	C1143.390503,270.479187 1143.516235,270.900482 1143.642090,271.321808 
	C1145.377930,271.321808 1147.113770,271.322357 1148.849609,271.321747 
	C1199.513062,271.304291 1250.178101,271.057037 1300.838501,271.442139 
	C1312.467529,271.530518 1323.112305,269.474548 1333.654297,264.764404 
	C1414.793091,228.511322 1495.958374,192.316071 1577.227539,156.356262 
	C1610.092896,141.814041 1643.245850,127.921944 1676.244263,113.679565 
	C1679.829590,112.132111 1683.083862,112.148247 1686.737549,113.742134 
	C1726.697388,131.173248 1766.711426,148.480331 1807.419678,166.088104 
M282.586456,505.500549 
	C282.586456,482.092865 282.586456,458.685150 282.586456,434.553162 
	C265.782806,434.553162 249.979706,434.421143 234.179565,434.580994 
	C202.691147,434.899567 171.205093,435.490387 139.716263,435.700714 
	C133.089706,435.744995 126.444038,434.733307 119.835487,433.964874 
	C118.686859,433.831299 116.771744,432.505737 116.748138,431.686462 
	C116.515381,423.608368 116.607483,415.520935 116.607483,406.728363 
	C172.550171,406.728363 227.460709,406.728363 282.373810,406.728363 
	C282.373810,369.746216 282.373810,333.504150 282.373810,297.120911 
	C189.913086,297.120911 97.868904,297.120911 6.280057,297.120911 
	C6.280057,425.917389 6.280057,554.339478 6.280057,682.646851 
	C43.366684,682.646851 79.747238,682.646851 116.605530,682.646851 
	C116.605530,636.604614 116.605530,591.017883 116.605530,544.916504 
	C172.154495,544.916504 227.224091,544.916504 282.590546,544.916504 
	C282.590546,531.767090 282.590546,519.133850 282.586456,505.500549 
M483.362885,276.967896 
	C485.130676,276.967896 486.898438,276.967896 488.792542,276.967896 
	C489.359131,288.018097 493.911163,296.915527 500.124451,305.182922 
	C514.882141,324.819427 516.306335,345.982483 507.317444,368.385132 
	C504.600922,375.155396 501.645294,381.946136 499.992737,389.006866 
	C492.676849,420.264618 493.511383,451.405792 502.396942,482.307404 
	C506.116730,495.243774 510.338593,508.057281 508.714508,521.928772 
	C506.154205,543.797363 508.658813,565.281860 516.418579,585.797302 
	C522.458984,601.767029 522.701111,617.883057 521.467529,634.468201 
	C520.656372,645.374146 520.066467,656.432007 520.977417,667.287659 
	C521.707886,675.992371 527.731262,679.596924 536.980957,679.442444 
	C545.199036,679.305237 549.922974,675.738281 550.904907,666.862000 
	C552.238281,654.809631 552.507019,642.636780 553.110229,630.509521 
	C553.190308,628.898987 552.429199,627.264771 552.270569,625.620972 
	C551.637207,619.057373 550.143005,612.407104 550.681885,605.931580 
	C552.412292,585.136780 553.351135,564.416748 551.335876,543.571533 
	C550.019104,529.950928 550.231934,516.296265 554.008728,502.921661 
	C559.774597,482.502960 561.759460,461.787140 559.123840,440.633240 
	C558.506042,435.674377 559.149719,430.558289 559.213013,425.514557 
	C559.781372,425.500153 560.349731,425.485779 560.918091,425.471375 
	C561.246094,427.577423 561.647705,429.675049 561.890686,431.790863 
	C564.170532,451.640717 566.477295,471.487762 568.666748,491.347687 
	C570.430786,507.348846 573.079224,523.238464 570.046997,539.509155 
	C568.545959,547.563599 568.002258,556.207336 569.178406,564.270325 
	C572.310669,585.741760 576.120667,606.965149 569.188660,628.480713 
	C567.475159,633.799255 568.055481,639.625488 572.391296,644.464661 
	C573.744080,645.974609 574.009766,648.787964 574.092957,651.029846 
	C574.221985,654.509216 573.755554,658.009583 573.563660,661.502197 
	C572.743774,676.419067 580.126404,683.635559 595.029968,682.345825 
	C596.908508,682.183228 599.380615,681.933838 600.464600,680.725830 
	C605.398376,675.227417 608.511353,668.740051 607.427429,661.156006 
	C606.726807,656.253784 605.638245,651.276794 603.825317,646.688232 
	C598.565002,633.374268 598.738159,620.000732 602.650513,606.545959 
	C611.219666,577.075806 614.951721,546.990112 615.258362,516.342468 
	C615.335693,508.608063 616.885681,500.790619 618.560181,493.187805 
	C624.239319,467.402496 628.191895,441.453308 626.953979,414.961060 
	C626.044250,395.494110 622.394043,376.628479 612.807861,359.374054 
	C605.304138,345.867798 606.068115,331.616455 613.027588,319.215698 
	C620.579468,305.759583 627.119812,292.157501 631.560547,277.485535 
	C632.499390,274.383545 634.138184,273.884399 637.013733,274.121216 
	C644.980225,274.777344 652.982056,275.669250 660.944824,275.469452 
	C666.101562,275.340057 671.430908,274.041748 676.301147,272.237030 
	C686.042969,268.627045 695.725464,265.660950 706.326294,265.880615 
	C712.921143,266.017273 719.854126,265.927307 726.091003,264.090576 
	C741.686829,259.497681 756.946899,253.774033 772.396362,248.669312 
	C777.674255,246.925415 783.114868,245.673752 788.173523,244.281860 
	C791.433472,251.928467 793.996765,258.778870 797.229614,265.297211 
	C800.730591,272.356079 806.586060,275.997955 814.741455,274.955933 
	C828.018921,273.259369 839.605530,267.809601 849.366821,258.706329 
	C853.702087,254.663315 854.692871,249.280518 852.337769,244.005585 
	C849.778687,238.273621 846.585083,232.769867 843.123230,227.526413 
	C841.933594,225.724533 839.094299,223.965179 837.021240,223.979782 
	C829.301819,224.034103 824.982483,220.318253 822.715942,213.303070 
	C821.960388,210.964523 820.630188,208.811584 819.511719,206.466888 
	C820.501465,205.263474 821.766357,204.251953 822.329529,202.939346 
	C823.847839,199.400452 826.939087,195.159134 826.040405,192.228729 
	C823.700928,184.599808 819.779480,177.405258 815.971863,170.315201 
	C815.084534,168.663025 812.129517,167.198257 810.144348,167.221558 
	C802.352112,167.312973 794.391174,167.177719 786.823853,168.734970 
	C777.148865,170.725967 771.184082,178.872864 764.445923,185.368484 
	C763.316956,186.456879 763.358032,189.594116 763.933350,191.451782 
	C765.401428,196.192108 767.560669,200.713303 769.289307,205.379257 
	C771.772156,212.081207 775.528931,217.088272 783.501282,217.219070 
	C784.686951,217.238525 785.861084,217.969498 787.040527,218.371292 
	C784.293091,220.377716 781.409363,221.767670 778.455139,221.938400 
	C763.828369,222.783829 749.124939,222.717819 734.564270,224.149704 
	C724.737000,225.116104 714.922241,227.448212 705.460938,230.342941 
	C701.141602,231.664459 697.304688,232.689545 692.971313,231.607971 
	C688.777466,230.561264 684.572937,229.556107 680.389221,228.470673 
	C670.619629,225.936096 660.700745,224.612411 650.724060,226.522598 
	C637.170044,229.117722 623.794800,232.812149 609.746887,231.103531 
	C607.682739,230.852463 605.381958,231.374481 603.370667,232.063858 
	C594.652222,235.052048 588.506287,230.691650 583.162964,224.842941 
	C577.810120,218.983826 578.632996,210.346222 584.269775,204.725006 
	C587.564209,201.439697 591.529175,197.724442 590.167480,192.711716 
	C587.609558,183.295807 584.869324,173.780777 580.775085,164.971527 
	C576.441833,155.648209 567.301025,153.806137 557.811890,154.239151 
	C548.682190,154.655731 541.219116,158.091522 537.636475,167.120590 
	C535.682129,172.045929 534.810913,177.443817 532.536743,182.190445 
	C528.063477,191.526947 528.705566,199.262741 536.548340,206.781784 
	C540.787109,210.845627 542.930664,216.852432 539.906677,222.864944 
	C536.770752,229.099823 530.894409,231.409256 524.286316,232.041077 
	C522.474976,232.214279 520.623291,231.911499 518.794983,231.972595 
	C512.815430,232.172485 506.839447,232.587860 500.859589,232.641342 
	C494.048004,232.702271 487.157074,233.073196 480.436707,232.227722 
	C466.470978,230.470703 452.643127,229.370926 438.758026,232.825500 
	C430.562744,234.864487 422.681793,233.574692 414.935455,230.077850 
	C409.981903,227.841736 404.698547,225.721817 399.373444,225.047974 
	C387.334930,223.524612 375.161682,223.101685 363.077393,221.890274 
	C356.278351,221.208679 349.547211,219.849213 342.785492,218.795120 
	C342.824768,218.162018 342.864075,217.528931 342.903381,216.895844 
	C345.633270,216.342911 348.374847,215.294617 351.090149,215.358856 
	C354.716949,215.444641 356.691650,213.874847 357.945160,210.802307 
	C360.392426,204.803772 362.899323,198.828705 365.271881,192.800781 
	C367.134033,188.069626 365.757721,184.248245 362.216034,180.629318 
	C348.917999,167.041290 332.790375,164.161926 314.910461,167.765244 
	C313.577271,168.033936 311.913635,169.235779 311.375763,170.438568 
	C308.869049,176.044006 306.580109,181.756653 304.457397,187.520844 
	C302.844299,191.901077 302.223114,196.835876 305.572510,200.331985 
	C310.331970,205.299911 309.792694,210.081573 307.177643,215.517166 
	C306.321686,217.296295 306.162689,219.428436 305.216980,221.140625 
	C304.560516,222.329102 303.149200,223.831863 301.997650,223.900864 
	C292.151428,224.490814 286.486877,229.764465 283.997620,239.037003 
	C283.310486,241.596527 282.157654,244.027313 281.368225,246.563751 
	C278.965240,254.284256 280.504395,259.518951 287.441742,263.685089 
	C293.254456,267.175781 299.415253,270.280182 305.758301,272.658447 
	C325.159027,279.932526 334.490112,275.204834 340.967926,255.511505 
	C342.136200,251.959824 343.604431,248.506775 345.293640,244.062424 
	C357.060791,248.989487 368.305939,253.107376 379.000244,258.349121 
	C388.849487,263.176636 398.884094,266.681000 409.785797,267.783203 
	C414.584869,268.268402 419.404877,268.753235 424.138062,269.647461 
	C443.411560,273.288757 462.476013,278.503357 483.362885,276.967896 
M2139.000000,412.652802 
	C2139.079102,410.902985 2139.157959,409.153198 2139.263428,406.817749 
	C2167.041260,406.817749 2194.254883,406.817749 2221.031250,406.817749 
	C2221.031250,369.815002 2221.031250,333.435333 2221.031250,297.262939 
	C2128.293457,297.262939 2036.246216,297.262939 1944.169800,297.262939 
	C1944.169800,334.026794 1944.169800,370.294800 1944.169800,407.461609 
	C1971.809448,407.461609 1999.193970,407.461609 2027.072998,407.461609 
	C2027.072998,499.755371 2027.072998,591.151001 2027.072998,682.812866 
	C2064.445557,682.812866 2101.313721,682.812866 2139.000000,682.812866 
	C2139.000000,592.848145 2139.000000,503.232239 2139.000000,412.652802 
M421.536499,571.500488 
	C421.536499,480.070160 421.536499,388.639832 421.536499,296.828308 
	C383.956787,296.828308 347.239594,296.828308 310.414429,296.828308 
	C310.414429,425.668579 310.414429,554.217834 310.414429,682.754272 
	C347.606018,682.754272 384.488159,682.754272 421.537445,682.754272 
	C421.537445,645.764893 421.537445,609.132690 421.536499,571.500488 
z"/>
<path fill="#65BC51" opacity="1.000000" stroke="none" 
	d="
M1.000000,706.250000 
	C34.828419,705.924988 68.656845,705.853760 102.485260,705.774353 
	C268.136810,705.385315 433.788361,705.011292 599.439880,704.598206 
	C723.927856,704.287781 848.415771,703.915039 972.903687,703.592102 
	C1040.896240,703.415771 1108.889038,703.331360 1176.880859,703.033081 
	C1181.574829,703.012390 1184.840576,704.398621 1188.288086,707.559814 
	C1214.440918,731.540771 1240.805298,755.291077 1267.117188,779.098267 
	C1268.432373,780.288269 1269.873047,781.339478 1272.164429,783.189270 
	C1271.552734,756.644409 1270.964722,731.126953 1270.379150,705.710205 
	C1588.975220,705.710205 1907.328979,705.710205 2226.147461,705.710205 
	C2196.248535,847.475220 2166.510742,988.476746 2136.669678,1129.966797 
	C2128.319092,1129.550049 2120.042969,1129.191040 2111.773682,1128.713745 
	C2091.157715,1127.524048 2070.545898,1126.259766 2049.930420,1125.063110 
	C2010.859619,1122.795044 1971.788086,1120.539062 1932.715332,1118.305542 
	C1907.442139,1116.860718 1882.165039,1115.485962 1856.891846,1114.042236 
	C1817.818481,1111.810181 1778.747925,1109.525146 1739.673950,1107.303467 
	C1713.733887,1105.828369 1687.787476,1104.467529 1661.848267,1102.978760 
	C1623.772705,1100.793823 1585.701904,1098.524292 1547.627441,1096.320801 
	C1522.688477,1094.877319 1497.745361,1093.503906 1472.805908,1092.068604 
	C1433.897949,1089.829590 1394.992798,1087.540039 1356.083862,1085.319214 
	C1329.645508,1083.810181 1303.199219,1082.440796 1276.762573,1080.903320 
	C1240.021973,1078.766724 1203.289185,1076.492554 1166.548950,1074.350708 
	C1140.110474,1072.809448 1113.661011,1071.453003 1087.223267,1069.899048 
	C1044.831543,1067.407593 1002.447021,1064.793335 960.056335,1062.284180 
	C934.953064,1060.798340 909.841064,1059.458252 884.737610,1057.974121 
	C848.165955,1055.812012 811.599243,1053.564697 775.028809,1051.381592 
	C750.423706,1049.912720 725.813904,1048.521606 701.209412,1047.042969 
	C664.308228,1044.825439 627.410217,1042.555054 590.510071,1040.320190 
	C561.416016,1038.557861 532.319031,1036.843384 503.226593,1035.056030 
	C467.153412,1032.839966 431.084137,1030.561035 395.012024,1028.328125 
	C365.754913,1026.516968 336.489929,1024.827271 307.239532,1022.914368 
	C269.850067,1020.469238 232.469681,1017.883240 195.089249,1015.302002 
	C170.003677,1013.569763 144.919403,1011.812195 119.845398,1009.921753 
	C108.892563,1009.095825 97.973053,1007.834900 87.025314,1006.930115 
	C83.520073,1006.640442 81.934647,1004.916626 80.993385,1001.634888 
	C69.398216,961.208679 57.065437,920.982178 46.175308,880.368347 
	C30.761576,822.884094 16.392273,765.119751 1.288276,707.237549 
	C1.000000,707.000000 1.000000,706.500000 1.000000,706.250000 
M1769.986206,850.255127 
	C1755.958740,849.004517 1743.345581,852.500793 1732.658325,861.713379 
	C1714.319824,846.353638 1694.359497,846.157532 1671.340942,861.084045 
	C1670.251343,859.272400 1669.307373,857.349121 1668.026855,855.684753 
	C1666.986328,854.332397 1665.611694,852.375305 1664.264648,852.272949 
	C1659.034912,851.875366 1653.756958,852.111084 1648.451172,852.111084 
	C1648.451172,889.757507 1648.451172,926.647339 1648.451172,963.702759 
	C1657.048340,963.702759 1665.288574,963.702759 1674.092773,963.702759 
	C1674.092773,961.632751 1674.092529,959.843628 1674.092651,958.054565 
	C1674.093872,934.730164 1674.070312,911.405701 1674.142578,888.081482 
	C1674.148560,886.167664 1674.213867,883.806885 1675.263428,882.418945 
	C1680.445557,875.566345 1690.058960,869.601318 1700.152466,872.811218 
	C1709.081665,875.650757 1712.885254,881.530396 1712.887207,893.380798 
	C1712.890625,915.039185 1712.882324,936.697510 1712.899536,958.355896 
	C1712.901001,960.116211 1713.060547,961.876404 1713.147461,963.652832 
	C1721.930420,963.652832 1730.165527,963.652832 1738.897583,963.652832 
	C1738.897583,961.511658 1738.897217,959.718262 1738.897461,957.924866 
	C1738.900635,934.267273 1738.870728,910.609558 1738.965088,886.952332 
	C1738.973267,884.883850 1739.305420,882.522949 1740.334351,880.805298 
	C1743.973267,874.729736 1754.287720,870.794800 1761.948853,872.180237 
	C1770.145630,873.662476 1774.760376,878.253845 1776.545044,887.114136 
	C1777.064697,889.693726 1777.048950,892.407532 1777.053589,895.060242 
	C1777.090332,916.218750 1777.067261,937.377258 1777.083374,958.535828 
	C1777.084717,960.280334 1777.241577,962.024658 1777.317871,963.594727 
	C1786.230225,963.594727 1794.472534,963.594727 1802.821533,963.594727 
	C1802.920776,962.046021 1803.057983,960.897827 1803.058350,959.749634 
	C1803.065430,935.925476 1803.157593,912.100708 1803.022095,888.277283 
	C1802.901611,867.105347 1791.705566,854.091858 1769.986206,850.255127 
M220.890930,951.352051 
	C223.263855,942.525940 225.544189,933.672852 228.102737,924.900879 
	C228.519104,923.473389 230.116455,921.393188 231.253250,921.336914 
	C238.032990,921.001038 244.837784,921.170654 252.616730,921.170654 
	C248.573196,936.414978 244.729462,950.906128 240.714172,966.044006 
	C246.072693,966.044006 250.744904,965.673584 255.330017,966.146973 
	C260.027771,966.631897 261.673248,964.497498 262.731873,960.375854 
	C265.749817,948.626099 269.162933,936.978333 272.259705,925.247925 
	C273.076477,922.153931 274.567810,920.926697 277.843170,921.080505 
	C283.282990,921.336060 288.743500,921.150024 294.821014,921.150024 
	C294.821014,915.756470 294.702820,910.968994 294.863281,906.190918 
	C294.967255,903.095398 293.650482,902.044617 290.698029,902.157837 
	C286.920074,902.302856 283.132355,902.193054 278.706024,902.193054 
	C279.118408,899.864990 279.291138,898.265015 279.693237,896.725037 
	C281.709015,889.005005 284.059418,881.359131 285.721771,873.565552 
	C286.531586,869.768982 288.199158,868.759399 291.804230,868.918396 
	C297.703888,869.178650 303.623352,868.988831 309.417358,868.988831 
	C309.417358,862.172974 309.417358,856.269714 309.417358,849.991882 
	C303.544800,849.991882 298.083435,849.991882 292.103333,849.991882 
	C295.746918,836.146851 299.261810,822.790771 302.918396,808.896240 
	C297.159485,808.896240 292.175507,809.045532 287.205902,808.842285 
	C284.044983,808.713013 282.544617,809.595764 281.724182,812.964233 
	C279.011230,824.102905 275.914917,835.151245 272.765228,846.176880 
	C272.351044,847.626770 270.821503,849.793213 269.724854,849.844727 
	C262.640167,850.177551 255.532242,850.015198 247.953827,850.015198 
	C251.581604,836.097839 255.029144,822.871887 258.673340,808.891479 
	C252.611069,808.891479 247.641464,809.038452 242.686111,808.836304 
	C239.716858,808.715149 238.340622,809.541077 237.578339,812.679077 
	C234.911545,823.657104 231.726242,834.508484 228.995621,845.472107 
	C228.126465,848.961853 226.631653,850.357910 222.898407,850.116394 
	C217.479935,849.765869 212.021927,850.026550 206.363922,850.026550 
	C206.363922,856.599182 206.363922,862.502380 206.363922,869.076599 
	C211.681839,869.076599 216.723572,869.076599 222.528427,869.076599 
	C219.579102,879.958374 216.937332,890.048584 213.989563,900.048523 
	C213.696198,901.043762 211.562805,902.035522 210.241959,902.094177 
	C204.982666,902.327393 199.706924,902.190186 194.410156,902.190186 
	C194.410156,908.869446 194.410156,914.775208 194.410156,921.186829 
	C199.035355,921.186829 203.302460,921.186829 208.427460,921.186829 
	C204.409378,936.349487 200.571075,950.833740 196.623001,965.732178 
	C203.676880,965.732178 209.956161,965.732178 216.235458,965.732178 
	C217.724747,961.203735 219.214050,956.675354 220.890930,951.352051 
M383.257446,870.781250 
	C376.940247,886.412476 370.623016,902.043762 363.844574,918.816223 
	C362.875183,916.041626 362.378571,914.660095 361.908783,913.269531 
	C355.526215,894.375305 349.200256,875.461609 342.679138,856.615417 
	C342.081512,854.888306 340.303741,852.361755 338.969788,852.295166 
	C330.875610,851.891235 322.751190,852.093750 314.516937,852.093750 
	C314.575348,853.064026 314.490601,853.582764 314.648926,854.011780 
	C327.946259,890.045776 341.270660,926.069763 354.559540,962.106873 
	C355.496033,964.646484 356.577484,966.431885 359.852631,966.117859 
	C362.965546,965.819397 365.699738,966.363403 367.410889,962.343140 
	C375.422943,943.519287 383.825745,924.861633 392.123657,906.159912 
	C393.214874,903.700623 394.505798,901.329895 396.119385,898.082581 
	C397.729675,901.556702 398.876160,903.938843 399.946808,906.354614 
	C408.170410,924.909485 416.537537,943.403687 424.471008,962.082031 
	C426.246216,966.261597 429.018250,965.857117 432.362640,966.141296 
	C436.095001,966.458435 436.756287,964.095459 437.702057,961.535156 
	C447.323639,935.487854 456.993103,909.458252 466.611603,883.409851 
	C470.393097,873.168884 474.079987,862.893066 478.015289,852.068298 
	C470.517181,852.068298 463.698547,852.299683 456.906769,851.972900 
	C453.389557,851.803711 451.957367,853.146606 450.879211,856.274719 
	C447.141266,867.119873 443.136597,877.873169 439.238403,888.663208 
	C435.750671,898.317078 432.269501,907.973328 428.339172,918.865173 
	C426.910095,915.722229 425.923492,913.698181 425.056915,911.623962 
	C417.236359,892.904114 409.362396,874.205750 401.702393,855.420227 
	C400.379547,852.176086 398.216705,851.983337 395.393982,852.024231 
	C392.775604,852.062256 390.695557,852.085449 389.619629,855.309021 
	C387.938538,860.345398 385.632141,865.172974 383.257446,870.781250 
M1302.828369,940.681152 
	C1293.727661,926.742737 1284.803345,912.683594 1275.406616,898.947693 
	C1272.944092,895.348206 1273.648804,893.224121 1276.157227,890.490540 
	C1282.909546,883.132202 1289.572876,875.691223 1296.209595,868.227966 
	C1300.738281,863.135254 1305.162476,857.949768 1310.268433,852.075073 
	C1300.586426,852.075073 1292.256348,852.216736 1283.935303,852.004761 
	C1280.646729,851.921082 1278.272949,852.831360 1276.167236,855.380371 
	C1271.080811,861.537170 1265.817505,867.548645 1260.582275,873.581116 
	C1254.746338,880.305847 1248.862671,886.989014 1242.999878,893.690186 
	C1242.631226,893.548035 1242.262695,893.405884 1241.894165,893.263733 
	C1241.894165,863.921509 1241.894165,834.579285 1241.894165,804.451904 
	C1234.382202,806.160889 1227.652222,807.827820 1220.860107,809.182251 
	C1217.234497,809.905212 1215.843872,811.382996 1215.858032,815.404358 
	C1216.025757,863.222107 1215.962769,911.040649 1215.976562,958.858948 
	C1215.977051,960.456421 1216.149048,962.053833 1216.242676,963.677612 
	C1224.977173,963.677612 1233.220215,963.677612 1241.961792,963.677612 
	C1241.961792,952.401489 1241.926636,941.444641 1242.000854,930.488525 
	C1242.011719,928.895325 1242.022095,926.857788 1242.931274,925.793640 
	C1246.457520,921.666443 1250.346802,917.849426 1254.284424,913.724670 
	C1255.256592,915.053345 1255.980591,915.946655 1256.602173,916.906372 
	C1266.012695,931.437866 1275.366577,946.006714 1284.876587,960.472778 
	C1285.851074,961.955139 1287.710938,963.787415 1289.214111,963.837769 
	C1298.485596,964.148071 1307.772705,963.993530 1317.951050,963.993530 
	C1312.731323,955.984619 1307.950928,948.649719 1302.828369,940.681152 
M506.754639,955.803650 
	C520.814514,966.251770 536.947754,967.085205 553.450806,965.542786 
	C562.594910,964.688232 571.541748,962.601379 579.251953,957.225342 
	C580.441956,956.395569 581.681152,953.801025 581.224426,952.749084 
	C578.668457,946.861938 575.598450,941.197998 572.608398,935.268005 
	C559.892944,945.143921 546.077393,946.283142 531.635681,941.951111 
	C519.780823,938.395142 512.314270,924.409180 514.782410,916.023865 
	C516.458862,916.023865 518.262695,916.024170 520.066467,916.023926 
	C542.877441,916.021118 565.688477,916.030701 588.499390,915.994873 
	C590.690552,915.991455 593.290527,916.775452 593.949707,913.281494 
	C597.581421,894.032898 594.358154,876.540894 579.228516,863.113770 
	C555.167114,841.759888 515.819702,846.864929 497.213318,873.125427 
	C488.274628,885.741272 486.159637,899.892578 486.879395,914.872620 
	C487.659729,931.114380 493.211334,944.990845 506.754639,955.803650 
M1325.894043,911.461792 
	C1326.052124,932.406006 1333.316895,949.557678 1352.519653,959.918884 
	C1365.198608,966.760071 1379.036377,966.931458 1392.911499,965.463501 
	C1401.878174,964.514771 1410.574097,962.382202 1418.323242,957.359558 
	C1420.371460,956.032043 1421.729126,954.914001 1420.291138,952.223755 
	C1417.333374,946.690491 1414.580688,941.047485 1411.714722,935.392578 
	C1398.989624,945.007324 1385.208496,946.235413 1370.750122,941.974792 
	C1359.393677,938.628174 1351.523315,925.227234 1353.745972,915.943481 
	C1379.837158,915.943481 1406.064697,915.943481 1432.241333,915.943481 
	C1434.803223,906.996277 1435.169067,898.474243 1433.419922,889.900574 
	C1425.993652,853.500549 1386.705566,842.300842 1359.233398,854.639221 
	C1335.617310,865.245728 1325.338257,884.896240 1325.894043,911.461792 
M803.092712,895.445251 
	C787.234314,902.151367 778.657654,913.972778 778.514587,931.317871 
	C778.427734,941.853699 781.571838,951.046326 790.120911,958.204712 
	C802.565430,968.624756 833.295593,970.196045 847.908875,953.533569 
	C851.941101,961.555054 857.540710,967.173584 867.360352,965.975464 
	C872.811646,965.310425 877.819885,963.897461 879.043213,960.253601 
	C876.239075,952.672119 873.623657,947.182617 872.251038,941.398193 
	C871.116577,936.617493 871.325562,931.492493 871.158142,926.512695 
	C870.705872,913.056091 871.074646,899.527893 869.789062,886.155762 
	C868.517090,872.924744 863.467468,860.857666 850.099365,855.360413 
	C830.238831,847.193359 810.259155,848.413269 790.068848,856.454346 
	C792.009277,863.263672 793.839600,869.686523 795.741455,876.360474 
	C797.942566,875.708740 799.508850,875.240662 801.077637,874.781189 
	C811.796509,871.641541 822.604065,870.372559 833.438843,874.004211 
	C841.255310,876.624084 845.478699,883.300537 844.320312,891.126282 
	C830.495728,888.843079 816.973206,890.431458 803.092712,895.445251 
M1585.179688,890.099060 
	C1571.245972,890.071106 1557.737915,891.674255 1545.276978,898.771484 
	C1522.416992,911.791504 1522.246826,945.918518 1539.190186,958.482178 
	C1555.237549,970.381592 1582.897095,968.150024 1596.435425,953.585510 
	C1606.607178,968.996643 1621.349609,970.978760 1627.820068,959.199524 
	C1625.359253,953.405334 1622.680176,948.619263 1621.338257,943.483765 
	C1620.140381,938.899658 1620.238159,933.935486 1620.081787,929.128723 
	C1619.638672,915.506531 1619.933716,901.833740 1618.863037,888.265625 
	C1617.610474,872.389282 1611.379517,859.173889 1594.894775,853.626526 
	C1583.866699,849.915344 1572.416260,848.919189 1560.943848,850.691711 
	C1553.539307,851.835693 1546.296143,854.025940 1538.653442,855.824341 
	C1540.855591,863.461853 1542.670654,869.756653 1544.591919,876.419983 
	C1546.545044,875.780579 1547.920532,875.292053 1549.318115,874.878662 
	C1560.181519,871.665405 1571.144897,870.367065 1582.154663,873.956421 
	C1589.801392,876.449341 1594.048828,883.013855 1593.315552,891.160950 
	C1590.900391,890.819580 1588.497803,890.479980 1585.179688,890.099060 
M1947.984863,852.074951 
	C1943.976685,851.870789 1945.197021,854.079041 1946.047363,856.196472 
	C1954.042603,876.104736 1962.192505,895.953125 1969.949097,915.954041 
	C1975.714478,930.820496 1981.616577,945.688538 1986.248535,960.923523 
	C1990.382812,974.521545 1986.199463,980.365295 1972.218262,983.409058 
	C1967.587402,984.417175 1962.815308,984.776855 1958.215820,985.417908 
	C1958.215820,993.054443 1958.215820,1000.290771 1958.215820,1008.433105 
	C1964.408936,1007.522583 1970.255981,1007.253418 1975.760132,1005.738342 
	C1989.819824,1001.868347 2002.220337,995.484680 2007.857300,980.699341 
	C2023.081299,940.767395 2038.274292,900.823547 2053.450195,860.873230 
	C2054.471436,858.184692 2055.246094,855.402405 2056.326416,852.075256 
	C2048.156006,852.075256 2040.841919,852.219299 2033.538086,852.005920 
	C2030.531250,851.918091 2029.174561,852.947083 2028.192871,855.779602 
	C2022.965332,870.862366 2017.532104,885.873779 2012.155884,900.904846 
	C2008.945312,909.881348 2005.708496,918.848572 2002.107666,928.865540 
	C2001.028809,926.584290 2000.416138,925.459045 1999.949097,924.276245 
	C1991.032349,901.693481 1982.081177,879.123901 1973.289062,856.492676 
	C1972.052124,853.308838 1970.598511,851.740479 1966.872314,851.973572 
	C1960.898682,852.347290 1954.884521,852.073730 1947.984863,852.074951 
M1034.923828,944.499634 
	C1034.923828,950.910461 1034.923828,957.321289 1034.923828,963.613403 
	C1044.080078,963.613403 1052.318970,963.613403 1060.941040,963.613403 
	C1060.941040,941.085754 1060.976440,918.947510 1060.904175,896.809692 
	C1060.892822,893.336304 1060.498901,889.852356 1060.102051,886.393921 
	C1055.661743,847.688538 1014.728943,843.785706 993.933960,856.219238 
	C991.336182,857.772461 989.153931,860.020691 986.551941,862.131226 
	C985.209595,859.376953 984.264099,857.048950 982.968933,854.935242 
	C982.274475,853.801880 981.016724,852.285828 979.948059,852.231873 
	C974.516052,851.957764 969.062744,852.105469 963.342407,852.105469 
	C963.342407,889.595703 963.342407,926.492004 963.342407,963.596375 
	C971.991089,963.596375 980.349426,963.596375 989.056763,963.596375 
	C989.056763,961.376953 989.056702,959.561523 989.056702,957.746094 
	C989.056946,935.082031 989.307800,912.413452 988.896179,889.756897 
	C988.781189,883.428589 991.471497,879.775513 996.311218,876.896667 
	C998.307007,875.709412 1000.406799,874.644165 1002.565186,873.791626 
	C1016.732056,868.195312 1030.470825,874.271606 1033.579590,887.643494 
	C1034.437866,891.334778 1034.822144,895.209534 1034.859131,899.005554 
	C1035.003540,913.835815 1034.921509,928.668213 1034.923828,944.499634 
M1487.807251,886.509644 
	C1487.807251,882.426270 1487.807251,878.342834 1487.807251,873.756653 
	C1495.598022,873.756653 1502.525146,873.756653 1509.708740,873.756653 
	C1509.708740,866.354309 1509.708740,859.474731 1509.708740,852.050964 
	C1502.132080,852.050964 1494.879761,852.050964 1487.746338,852.050964 
	C1486.422363,845.048279 1488.400757,837.987366 1493.194702,832.710388 
	C1500.465454,824.707092 1509.305298,828.098999 1518.045166,829.997253 
	C1520.553711,823.368042 1522.929932,817.088196 1525.525757,810.228333 
	C1521.045532,809.169800 1517.385864,808.150208 1513.665771,807.454895 
	C1501.672485,805.213196 1490.172363,805.917358 1479.866943,813.424011 
	C1468.898804,821.413452 1463.554810,832.658752 1462.200806,845.698181 
	C1461.652832,850.974915 1459.980713,852.717957 1454.925293,852.133118 
	C1451.853882,851.777771 1448.707764,852.067566 1445.454102,852.067566 
	C1445.454102,859.622253 1445.454102,866.500977 1445.454102,873.938354 
	C1450.734619,873.938354 1455.658203,873.938354 1461.268799,873.938354 
	C1461.268799,904.203491 1461.268799,933.913940 1461.268799,963.688599 
	C1470.402344,963.688599 1478.820190,963.688599 1487.806885,963.688599 
	C1487.806885,938.083252 1487.806885,912.795410 1487.807251,886.509644 
M646.809814,917.492798 
	C646.809814,902.892517 646.809814,888.292175 646.809814,873.045044 
	C657.137451,873.045044 666.855835,873.045044 676.590637,873.045044 
	C676.590637,865.698975 676.590637,859.016846 676.590637,851.864990 
	C666.526611,851.864990 656.933411,851.864990 646.648560,851.864990 
	C646.648560,841.051880 646.648560,830.707825 646.648560,819.733337 
	C638.827942,822.590027 631.891174,825.284119 624.839355,827.632812 
	C621.261108,828.824585 619.933899,830.799072 620.138184,834.584229 
	C620.446899,840.303772 620.218750,846.052307 620.218750,852.223022 
	C615.648865,852.223022 612.049316,852.223022 608.292236,852.223022 
	C608.292236,859.385681 608.292236,866.064819 608.292236,873.201904 
	C612.338562,873.201904 615.940613,873.201904 620.213562,873.201904 
	C620.213562,875.587524 620.191895,877.531189 620.216919,879.474121 
	C620.463440,898.601135 620.327271,917.744385 621.123169,936.848694 
	C621.565857,947.476135 626.200073,956.650452 636.173523,961.693237 
	C650.081543,968.725281 664.614685,966.578491 679.045105,963.429504 
	C679.832764,963.257629 680.876587,961.817749 680.895142,960.948792 
	C681.045715,953.900085 680.979736,946.846680 680.979736,939.769958 
	C676.442627,941.188538 672.577148,942.732666 668.564941,943.589233 
	C656.216431,946.225403 648.013428,940.800964 647.035889,929.471375 
	C646.721802,925.830994 646.871826,922.150635 646.809814,917.492798 
M1925.965576,907.500000 
	C1925.965576,873.265381 1925.965576,839.030701 1925.965576,804.352295 
	C1918.311035,806.131592 1911.411377,807.984009 1904.407227,809.264954 
	C1900.559692,809.968567 1899.879395,811.862549 1899.888428,815.364441 
	C1899.997437,857.848022 1899.963501,900.332031 1899.972412,942.815918 
	C1899.972778,944.314880 1899.947876,945.821106 1900.077759,947.311584 
	C1900.957031,957.400269 1906.394531,964.866272 1913.878418,965.867493 
	C1925.165283,967.377380 1935.581055,962.283264 1937.551880,954.506531 
	C1930.900879,951.474365 1927.286011,945.968811 1926.825439,938.903931 
	C1926.166260,928.793579 1926.217529,918.636902 1925.965576,907.500000 
M1124.793213,949.639404 
	C1120.467529,943.833435 1119.859741,937.105469 1119.863647,930.184326 
	C1119.886108,890.352844 1119.872437,850.521301 1119.870972,810.689819 
	C1119.870850,808.762695 1119.870972,806.835632 1119.870972,804.234009 
	C1112.571655,805.965210 1106.194214,807.750366 1099.705688,808.920044 
	C1095.458252,809.685669 1093.710938,811.160095 1093.735352,815.909546 
	C1093.947510,857.239929 1093.856812,898.571777 1093.869141,939.903198 
	C1093.869995,942.735474 1093.812134,945.582214 1094.061890,948.397339 
	C1094.935913,958.243958 1100.427368,964.979980 1108.197388,965.935791 
	C1118.844971,967.245544 1127.958984,962.835144 1130.943359,954.898499 
	C1129.033325,953.356079 1127.113159,951.805359 1124.793213,949.639404 
M727.057617,956.425598 
	C727.061890,937.446289 726.896667,918.464966 727.120850,899.488281 
	C727.321106,882.533569 742.267822,863.960815 763.926147,875.504944 
	C764.343506,875.727356 764.862000,875.759888 765.864563,876.017517 
	C769.083435,869.554932 772.431824,863.084534 775.437683,856.458740 
	C775.789551,855.683228 774.484497,853.216675 773.552002,852.957520 
	C769.108032,851.722473 764.562439,850.477112 759.988586,850.158142 
	C747.749756,849.304626 736.679871,852.462646 726.941040,862.288513 
	C726.941040,858.244202 726.941040,855.388062 726.941040,852.381592 
	C718.106445,852.381592 709.874939,852.381592 701.467163,852.381592 
	C701.467163,889.686401 701.467163,926.677856 701.467163,963.646851 
	C710.121826,963.646851 718.359985,963.646851 727.057617,963.646851 
	C727.057617,961.328613 727.057617,959.365479 727.057617,956.425598 
M1159.052490,896.500000 
	C1159.052490,918.886719 1159.052490,941.273376 1159.052490,963.558228 
	C1168.424561,963.558228 1176.962646,963.558228 1185.303711,963.558228 
	C1185.542603,962.955872 1185.654785,962.804993 1185.655151,962.653809 
	C1185.721802,927.045593 1185.759033,891.437256 1185.876099,855.829224 
	C1185.886841,852.571289 1184.248657,852.013794 1181.492432,852.035217 
	C1170.342896,852.121521 1159.192383,852.059998 1148.042358,852.100525 
	C1147.111816,852.103882 1146.182617,852.462341 1145.450195,852.614746 
	C1145.450195,859.801819 1145.450195,866.679993 1145.450195,874.082520 
	C1150.146973,874.082520 1154.389282,874.082520 1159.052612,874.082520 
	C1159.052612,881.582397 1159.052612,888.541260 1159.052490,896.500000 
M912.618286,964.009949 
	C919.220337,964.009949 925.822388,964.009949 932.533020,964.009949 
	C932.533020,926.402161 932.533020,889.420532 932.533020,852.478027 
	C918.899048,852.478027 905.688477,852.478027 892.087891,852.478027 
	C892.087891,858.519836 892.194397,864.158081 892.045044,869.789612 
	C891.964783,872.815247 893.126709,874.023132 896.137573,873.884338 
	C899.368469,873.735413 902.611511,873.850647 906.320679,873.850647 
	C906.320679,904.336792 906.320679,933.893677 906.320679,964.007507 
	C908.423706,964.007507 910.041260,964.007507 912.618286,964.009949 
M1865.044800,898.500000 
	C1865.044800,883.221375 1865.044800,867.942749 1865.044800,852.441528 
	C1851.395020,852.441528 1838.349976,852.441528 1825.252319,852.441528 
	C1825.252319,859.682068 1825.252319,866.549133 1825.252319,873.999329 
	C1829.931885,873.999329 1834.175781,873.999329 1839.081055,873.999329 
	C1839.081055,904.287537 1839.081055,933.986084 1839.081055,963.679810 
	C1848.032593,963.679810 1856.285400,963.679810 1865.044800,963.679810 
	C1865.044800,942.073486 1865.044800,920.786743 1865.044800,898.500000 
M1839.147583,815.909058 
	C1835.471436,824.304321 1836.845337,831.486755 1842.987427,835.981384 
	C1848.841797,840.265503 1856.511230,840.096436 1861.842529,835.566101 
	C1868.580566,829.840332 1869.094727,819.822754 1862.978760,813.421814 
	C1856.409912,806.546814 1846.560913,807.325562 1839.147583,815.909058 
M1159.979614,832.333740 
	C1161.005737,833.417847 1161.943115,834.606384 1163.072754,835.568909 
	C1169.720337,841.233398 1179.452759,839.864868 1184.982910,832.538147 
	C1189.759766,826.209351 1188.195679,816.497070 1181.638306,811.769531 
	C1175.898560,807.631531 1168.577515,807.764893 1163.216675,812.105042 
	C1157.119751,817.041077 1155.862061,823.748962 1159.979614,832.333740 
M934.811035,826.892212 
	C934.867493,825.734375 935.006287,824.573669 934.966858,823.419128 
	C934.749817,817.055847 930.651184,811.489380 924.758057,809.483032 
	C918.718018,807.426636 911.757996,809.583374 907.814453,814.733521 
	C904.109619,819.571960 903.657715,826.904846 907.088867,832.010864 
	C910.478149,837.054626 915.280457,839.705261 921.498291,838.943542 
	C928.304871,838.109741 932.526855,834.111267 934.811035,826.892212 
z"/>
<path fill="#65BC51" opacity="1.000000" stroke="none" 
	d="
M970.317261,292.682343 
	C1026.550659,348.610260 1082.524292,404.298187 1138.497925,459.986115 
	C1138.924194,459.787903 1139.350464,459.589722 1139.776733,459.391541 
	C1139.776733,405.426392 1139.776733,351.461273 1139.776733,297.115051 
	C1177.033203,297.115051 1213.607178,297.115051 1250.692383,297.115051 
	C1250.692383,443.455017 1250.692383,589.827393 1250.692383,737.147522 
	C1247.366699,734.556458 1244.107056,732.566101 1241.524902,729.915771 
	C1225.024414,712.979248 1208.884644,695.687134 1192.223755,678.911804 
	C1165.807495,652.314392 1139.122314,625.983398 1112.463867,599.627563 
	C1086.994263,574.446838 1061.421875,549.369812 1035.862061,524.280396 
	C1034.230347,522.678650 1032.317139,521.363770 1029.604980,519.159790 
	C1029.604980,574.247803 1029.604980,628.266907 1029.604980,682.716797 
	C992.069275,682.716797 955.211853,682.716797 918.070129,682.716797 
	C918.070129,536.324585 918.070129,390.081848 918.070129,242.071655 
	C936.012329,259.455902 953.034973,275.949127 970.317261,292.682343 
z"/>
<path fill="#65BC51" opacity="1.000000" stroke="none" 
	d="
M1733.000000,683.017212 
	C1683.016113,683.017151 1633.532349,683.017151 1583.775635,683.017151 
	C1583.775635,646.299622 1583.775635,609.789551 1583.775635,572.729309 
	C1657.738770,572.729309 1731.137451,572.729309 1804.841309,572.729309 
	C1804.841309,563.436401 1804.841309,554.693909 1804.841309,544.494507 
	C1791.849609,544.494507 1779.083130,544.449341 1766.317261,544.503723 
	C1738.508667,544.622131 1710.677856,545.530090 1682.899292,544.690674 
	C1663.014404,544.089722 1643.623535,539.583130 1626.098022,529.318970 
	C1605.789673,517.425049 1593.339600,499.348083 1588.422852,476.864410 
	C1580.546875,440.848633 1580.140259,404.291260 1587.804565,368.284576 
	C1596.040405,329.592438 1621.847168,307.648224 1660.092285,300.182678 
	C1670.643921,298.122986 1681.549072,297.011108 1692.298218,296.965820 
	C1764.959595,296.659729 1837.622681,296.755280 1910.285278,296.735626 
	C1911.698730,296.735229 1913.112183,296.913940 1915.756470,297.091949 
	C1911.079712,302.255493 1907.311035,306.839844 1903.110474,310.986725 
	C1872.636353,341.071075 1842.050659,371.042389 1811.566162,401.116241 
	C1806.585083,406.030243 1800.776733,407.640594 1793.901367,407.574860 
	C1762.577637,407.275391 1731.251099,407.281830 1699.926147,407.082031 
	C1696.404663,407.059570 1694.819336,408.011230 1694.972412,411.895264 
	C1695.253906,419.032104 1695.052612,426.188019 1695.052612,434.065338 
	C1697.859131,434.360474 1700.758911,434.951813 1703.652466,434.924042 
	C1725.474609,434.714569 1747.295776,434.396240 1769.116943,434.086792 
	C1793.942261,433.734772 1818.766846,433.471130 1843.185669,439.051483 
	C1865.598022,444.173401 1885.217285,453.975464 1898.797485,473.356171 
	C1909.822388,489.090240 1914.976318,507.055237 1915.751709,525.897644 
	C1916.654541,547.842896 1917.140015,569.926086 1915.735474,591.816589 
	C1913.723755,623.170349 1901.987671,650.022156 1873.689209,667.096191 
	C1858.860474,676.043091 1842.518433,681.167175 1825.429321,681.795776 
	C1794.812622,682.922058 1764.145874,682.684753 1733.000000,683.017212 
z"/>
<path fill="#65BC51" opacity="1.000000" stroke="none" 
	d="
M1556.109375,397.960083 
	C1556.109741,401.093628 1556.109741,403.732819 1556.109741,407.002136 
	C1500.692261,407.002136 1445.634521,407.002136 1389.729858,407.002136 
	C1389.729858,415.559662 1389.597900,423.503937 1389.906006,431.431152 
	C1389.942261,432.365234 1392.351929,433.895386 1393.733765,433.980835 
	C1405.529297,434.710449 1417.342529,435.644318 1429.148804,435.622681 
	C1466.639282,435.553986 1504.129150,435.095062 1541.619263,434.798157 
	C1546.233154,434.761627 1550.847534,434.793182 1555.776978,434.793182 
	C1555.776978,471.778442 1555.776978,508.037292 1555.776978,544.906128 
	C1500.699951,544.906128 1445.639404,544.906128 1389.694336,544.906128 
	C1389.694336,553.429443 1389.561523,561.371582 1389.867432,569.296753 
	C1389.904541,570.255981 1392.264282,571.835205 1393.625000,571.922546 
	C1405.418091,572.679321 1417.229736,573.655396 1429.034180,573.633423 
	C1469.024292,573.558960 1509.013916,573.101440 1549.003662,572.793640 
	C1551.129395,572.777283 1553.255249,572.791504 1555.742676,572.791504 
	C1555.742676,609.620789 1555.742676,645.882446 1555.742676,682.618958 
	C1463.521240,682.618958 1371.166992,682.618958 1278.577881,682.618958 
	C1278.577881,554.177063 1278.577881,425.793304 1278.577881,297.095215 
	C1371.052734,297.095215 1463.146362,297.095215 1556.109131,297.095215 
	C1556.109131,330.605347 1556.109131,364.035522 1556.109375,397.960083 
z"/>
<path fill="#65BC52" opacity="1.000000" stroke="none" 
	d="
M1807.065186,165.954620 
	C1766.711426,148.480331 1726.697388,131.173248 1686.737549,113.742134 
	C1683.083862,112.148247 1679.829590,112.132111 1676.244263,113.679565 
	C1643.245850,127.921944 1610.092896,141.814041 1577.227539,156.356262 
	C1495.958374,192.316071 1414.793091,228.511322 1333.654297,264.764404 
	C1323.112305,269.474548 1312.467529,271.530518 1300.838501,271.442139 
	C1250.178101,271.057037 1199.513062,271.304291 1148.849609,271.321747 
	C1147.113770,271.322357 1145.377930,271.321808 1143.642090,271.321808 
	C1143.516235,270.900482 1143.390503,270.479187 1143.264648,270.057861 
	C1147.832031,267.540833 1152.316650,264.858215 1156.979126,262.531677 
	C1223.568848,229.304428 1290.229736,196.219330 1356.777588,162.908646 
	C1426.868774,127.824402 1496.821289,92.463295 1566.906372,57.366867 
	C1602.171143,39.707336 1637.640747,22.456457 1672.898682,4.783349 
	C1678.162598,2.144757 1682.425537,2.107094 1687.756470,4.744112 
	C1756.537231,38.767265 1825.557373,72.308464 1894.255249,106.497131 
	C1985.151855,151.733368 2075.834961,197.399567 2166.567871,242.964172 
	C2183.074707,251.253647 2199.383545,259.938110 2215.775146,268.456573 
	C2216.749512,268.963013 2217.648438,269.615051 2218.460938,271.102997 
	C2216.898926,271.102997 2215.336914,271.097595 2213.774902,271.103790 
	C2162.114258,271.309113 2110.451416,271.316071 2058.794922,271.891724 
	C2048.583252,272.005524 2039.397217,269.516174 2030.390747,265.524780 
	C1989.160156,247.252533 1947.964844,228.900894 1906.777832,210.530533 
	C1873.642700,195.751511 1840.537964,180.904800 1807.065186,165.954620 
z"/>
<path fill="#363435" opacity="1.000000" stroke="none" 
	d="
M282.588501,506.000549 
	C282.590546,519.133850 282.590546,531.767090 282.590546,544.916504 
	C227.224091,544.916504 172.154495,544.916504 116.605530,544.916504 
	C116.605530,591.017883 116.605530,636.604614 116.605530,682.646851 
	C79.747238,682.646851 43.366684,682.646851 6.280057,682.646851 
	C6.280057,554.339478 6.280057,425.917389 6.280057,297.120911 
	C97.868904,297.120911 189.913086,297.120911 282.373810,297.120911 
	C282.373810,333.504150 282.373810,369.746216 282.373810,406.728363 
	C227.460709,406.728363 172.550171,406.728363 116.607483,406.728363 
	C116.607483,415.520935 116.515381,423.608368 116.748138,431.686462 
	C116.771744,432.505737 118.686859,433.831299 119.835487,433.964874 
	C126.444038,434.733307 133.089706,435.744995 139.716263,435.700714 
	C171.205093,435.490387 202.691147,434.899567 234.179565,434.580994 
	C249.979706,434.421143 265.782806,434.553162 282.586456,434.553162 
	C282.586456,458.685150 282.586456,482.092865 282.588501,506.000549 
z"/>
<path fill="#373536" opacity="1.000000" stroke="none" 
	d="
M482.879974,276.974152 
	C462.476013,278.503357 443.411560,273.288757 424.138062,269.647461 
	C419.404877,268.753235 414.584869,268.268402 409.785797,267.783203 
	C398.884094,266.681000 388.849487,263.176636 379.000244,258.349121 
	C368.305939,253.107376 357.060791,248.989487 345.293640,244.062424 
	C343.604431,248.506775 342.136200,251.959824 340.967926,255.511505 
	C334.490112,275.204834 325.159027,279.932526 305.758301,272.658447 
	C299.415253,270.280182 293.254456,267.175781 287.441742,263.685089 
	C280.504395,259.518951 278.965240,254.284256 281.368225,246.563751 
	C282.157654,244.027313 283.310486,241.596527 283.997620,239.037003 
	C286.486877,229.764465 292.151428,224.490814 301.997650,223.900864 
	C303.149200,223.831863 304.560516,222.329102 305.216980,221.140625 
	C306.162689,219.428436 306.321686,217.296295 307.177643,215.517166 
	C309.792694,210.081573 310.331970,205.299911 305.572510,200.331985 
	C302.223114,196.835876 302.844299,191.901077 304.457397,187.520844 
	C306.580109,181.756653 308.869049,176.044006 311.375763,170.438568 
	C311.913635,169.235779 313.577271,168.033936 314.910461,167.765244 
	C332.790375,164.161926 348.917999,167.041290 362.216034,180.629318 
	C365.757721,184.248245 367.134033,188.069626 365.271881,192.800781 
	C362.899323,198.828705 360.392426,204.803772 357.945160,210.802307 
	C356.691650,213.874847 354.716949,215.444641 351.090149,215.358856 
	C348.374847,215.294617 345.633270,216.342911 342.903381,216.895844 
	C342.864075,217.528931 342.824768,218.162018 342.785492,218.795120 
	C349.547211,219.849213 356.278351,221.208679 363.077393,221.890274 
	C375.161682,223.101685 387.334930,223.524612 399.373444,225.047974 
	C404.698547,225.721817 409.981903,227.841736 414.935455,230.077850 
	C422.681793,233.574692 430.562744,234.864487 438.758026,232.825500 
	C452.643127,229.370926 466.470978,230.470703 480.436707,232.227722 
	C487.157074,233.073196 494.048004,232.702271 500.859589,232.641342 
	C506.839447,232.587860 512.815430,232.172485 518.794983,231.972595 
	C520.623291,231.911499 522.474976,232.214279 524.286316,232.041077 
	C530.894409,231.409256 536.770752,229.099823 539.906677,222.864944 
	C542.930664,216.852432 540.787109,210.845627 536.548340,206.781784 
	C528.705566,199.262741 528.063477,191.526947 532.536743,182.190445 
	C534.810913,177.443817 535.682129,172.045929 537.636475,167.120590 
	C541.219116,158.091522 548.682190,154.655731 557.811890,154.239151 
	C567.301025,153.806137 576.441833,155.648209 580.775085,164.971527 
	C584.869324,173.780777 587.609558,183.295807 590.167480,192.711716 
	C591.529175,197.724442 587.564209,201.439697 584.269775,204.725006 
	C578.632996,210.346222 577.810120,218.983826 583.162964,224.842941 
	C588.506287,230.691650 594.652222,235.052048 603.370667,232.063858 
	C605.381958,231.374481 607.682739,230.852463 609.746887,231.103531 
	C623.794800,232.812149 637.170044,229.117722 650.724060,226.522598 
	C660.700745,224.612411 670.619629,225.936096 680.389221,228.470673 
	C684.572937,229.556107 688.777466,230.561264 692.971313,231.607971 
	C697.304688,232.689545 701.141602,231.664459 705.460938,230.342941 
	C714.922241,227.448212 724.737000,225.116104 734.564270,224.149704 
	C749.124939,222.717819 763.828369,222.783829 778.455139,221.938400 
	C781.409363,221.767670 784.293091,220.377716 787.040527,218.371292 
	C785.861084,217.969498 784.686951,217.238525 783.501282,217.219070 
	C775.528931,217.088272 771.772156,212.081207 769.289307,205.379257 
	C767.560669,200.713303 765.401428,196.192108 763.933350,191.451782 
	C763.358032,189.594116 763.316956,186.456879 764.445923,185.368484 
	C771.184082,178.872864 777.148865,170.725967 786.823853,168.734970 
	C794.391174,167.177719 802.352112,167.312973 810.144348,167.221558 
	C812.129517,167.198257 815.084534,168.663025 815.971863,170.315201 
	C819.779480,177.405258 823.700928,184.599808 826.040405,192.228729 
	C826.939087,195.159134 823.847839,199.400452 822.329529,202.939346 
	C821.766357,204.251953 820.501465,205.263474 819.511719,206.466888 
	C820.630188,208.811584 821.960388,210.964523 822.715942,213.303070 
	C824.982483,220.318253 829.301819,224.034103 837.021240,223.979782 
	C839.094299,223.965179 841.933594,225.724533 843.123230,227.526413 
	C846.585083,232.769867 849.778687,238.273621 852.337769,244.005585 
	C854.692871,249.280518 853.702087,254.663315 849.366821,258.706329 
	C839.605530,267.809601 828.018921,273.259369 814.741455,274.955933 
	C806.586060,275.997955 800.730591,272.356079 797.229614,265.297211 
	C793.996765,258.778870 791.433472,251.928467 788.173523,244.281860 
	C783.114868,245.673752 777.674255,246.925415 772.396362,248.669312 
	C756.946899,253.774033 741.686829,259.497681 726.091003,264.090576 
	C719.854126,265.927307 712.921143,266.017273 706.326294,265.880615 
	C695.725464,265.660950 686.042969,268.627045 676.301147,272.237030 
	C671.430908,274.041748 666.101562,275.340057 660.944824,275.469452 
	C652.982056,275.669250 644.980225,274.777344 637.013733,274.121216 
	C634.138184,273.884399 632.499390,274.383545 631.560547,277.485535 
	C627.119812,292.157501 620.579468,305.759583 613.027588,319.215698 
	C606.068115,331.616455 605.304138,345.867798 612.807861,359.374054 
	C622.394043,376.628479 626.044250,395.494110 626.953979,414.961060 
	C628.191895,441.453308 624.239319,467.402496 618.560181,493.187805 
	C616.885681,500.790619 615.335693,508.608063 615.258362,516.342468 
	C614.951721,546.990112 611.219666,577.075806 602.650513,606.545959 
	C598.738159,620.000732 598.565002,633.374268 603.825317,646.688232 
	C605.638245,651.276794 606.726807,656.253784 607.427429,661.156006 
	C608.511353,668.740051 605.398376,675.227417 600.464600,680.725830 
	C599.380615,681.933838 596.908508,682.183228 595.029968,682.345825 
	C580.126404,683.635559 572.743774,676.419067 573.563660,661.502197 
	C573.755554,658.009583 574.221985,654.509216 574.092957,651.029846 
	C574.009766,648.787964 573.744080,645.974609 572.391296,644.464661 
	C568.055481,639.625488 567.475159,633.799255 569.188660,628.480713 
	C576.120667,606.965149 572.310669,585.741760 569.178406,564.270325 
	C568.002258,556.207336 568.545959,547.563599 570.046997,539.509155 
	C573.079224,523.238464 570.430786,507.348846 568.666748,491.347687 
	C566.477295,471.487762 564.170532,451.640717 561.890686,431.790863 
	C561.647705,429.675049 561.246094,427.577423 560.918091,425.471375 
	C560.349731,425.485779 559.781372,425.500153 559.213013,425.514557 
	C559.149719,430.558289 558.506042,435.674377 559.123840,440.633240 
	C561.759460,461.787140 559.774597,482.502960 554.008728,502.921661 
	C550.231934,516.296265 550.019104,529.950928 551.335876,543.571533 
	C553.351135,564.416748 552.412292,585.136780 550.681885,605.931580 
	C550.143005,612.407104 551.637207,619.057373 552.270569,625.620972 
	C552.429199,627.264771 553.190308,628.898987 553.110229,630.509521 
	C552.507019,642.636780 552.238281,654.809631 550.904907,666.862000 
	C549.922974,675.738281 545.199036,679.305237 536.980957,679.442444 
	C527.731262,679.596924 521.707886,675.992371 520.977417,667.287659 
	C520.066467,656.432007 520.656372,645.374146 521.467529,634.468201 
	C522.701111,617.883057 522.458984,601.767029 516.418579,585.797302 
	C508.658813,565.281860 506.154205,543.797363 508.714508,521.928772 
	C510.338593,508.057281 506.116730,495.243774 502.396942,482.307404 
	C493.511383,451.405792 492.676849,420.264618 499.992737,389.006866 
	C501.645294,381.946136 504.600922,375.155396 507.317444,368.385132 
	C516.306335,345.982483 514.882141,324.819427 500.124451,305.182922 
	C493.911163,296.915527 489.359131,288.018097 488.792542,276.967896 
	C486.898438,276.967896 485.130676,276.967896 482.879974,276.974152 
z"/>
<path fill="#65BC51" opacity="1.000000" stroke="none" 
	d="
M2139.000000,413.134552 
	C2139.000000,503.232239 2139.000000,592.848145 2139.000000,682.812866 
	C2101.313721,682.812866 2064.445557,682.812866 2027.072998,682.812866 
	C2027.072998,591.151001 2027.072998,499.755371 2027.072998,407.461609 
	C1999.193970,407.461609 1971.809448,407.461609 1944.169800,407.461609 
	C1944.169800,370.294800 1944.169800,334.026794 1944.169800,297.262939 
	C2036.246216,297.262939 2128.293457,297.262939 2221.031250,297.262939 
	C2221.031250,333.435333 2221.031250,369.815002 2221.031250,406.817749 
	C2194.254883,406.817749 2167.041260,406.817749 2139.263428,406.817749 
	C2139.157959,409.153198 2139.079102,410.902985 2139.000000,413.134552 
z"/>
<path fill="#373536" opacity="1.000000" stroke="none" 
	d="
M421.536987,572.000488 
	C421.537445,609.132690 421.537445,645.764893 421.537445,682.754272 
	C384.488159,682.754272 347.606018,682.754272 310.414429,682.754272 
	C310.414429,554.217834 310.414429,425.668579 310.414429,296.828308 
	C347.239594,296.828308 383.956787,296.828308 421.536499,296.828308 
	C421.536499,388.639832 421.536499,480.070160 421.536987,572.000488 
z"/>
<path fill="#373635" opacity="1.000000" stroke="none" 
	d="
M1770.419434,850.361572 
	C1791.705566,854.091858 1802.901611,867.105347 1803.022095,888.277283 
	C1803.157593,912.100708 1803.065430,935.925476 1803.058350,959.749634 
	C1803.057983,960.897827 1802.920776,962.046021 1802.821533,963.594727 
	C1794.472534,963.594727 1786.230225,963.594727 1777.317871,963.594727 
	C1777.241577,962.024658 1777.084717,960.280334 1777.083374,958.535828 
	C1777.067261,937.377258 1777.090332,916.218750 1777.053589,895.060242 
	C1777.048950,892.407532 1777.064697,889.693726 1776.545044,887.114136 
	C1774.760376,878.253845 1770.145630,873.662476 1761.948853,872.180237 
	C1754.287720,870.794800 1743.973267,874.729736 1740.334351,880.805298 
	C1739.305420,882.522949 1738.973267,884.883850 1738.965088,886.952332 
	C1738.870728,910.609558 1738.900635,934.267273 1738.897461,957.924866 
	C1738.897217,959.718262 1738.897583,961.511658 1738.897583,963.652832 
	C1730.165527,963.652832 1721.930420,963.652832 1713.147461,963.652832 
	C1713.060547,961.876404 1712.901001,960.116211 1712.899536,958.355896 
	C1712.882324,936.697510 1712.890625,915.039185 1712.887207,893.380798 
	C1712.885254,881.530396 1709.081665,875.650757 1700.152466,872.811218 
	C1690.058960,869.601318 1680.445557,875.566345 1675.263428,882.418945 
	C1674.213867,883.806885 1674.148560,886.167664 1674.142578,888.081482 
	C1674.070312,911.405701 1674.093872,934.730164 1674.092651,958.054565 
	C1674.092529,959.843628 1674.092773,961.632751 1674.092773,963.702759 
	C1665.288574,963.702759 1657.048340,963.702759 1648.451172,963.702759 
	C1648.451172,926.647339 1648.451172,889.757507 1648.451172,852.111084 
	C1653.756958,852.111084 1659.034912,851.875366 1664.264648,852.272949 
	C1665.611694,852.375305 1666.986328,854.332397 1668.026855,855.684753 
	C1669.307373,857.349121 1670.251343,859.272400 1671.340942,861.084045 
	C1694.359497,846.157532 1714.319824,846.353638 1732.658325,861.713379 
	C1743.345581,852.500793 1755.958740,849.004517 1770.419434,850.361572 
z"/>
<path fill="#373635" opacity="1.000000" stroke="none" 
	d="
M220.797134,951.749512 
	C219.214050,956.675354 217.724747,961.203735 216.235458,965.732178 
	C209.956161,965.732178 203.676880,965.732178 196.623001,965.732178 
	C200.571075,950.833740 204.409378,936.349487 208.427460,921.186829 
	C203.302460,921.186829 199.035355,921.186829 194.410156,921.186829 
	C194.410156,914.775208 194.410156,908.869446 194.410156,902.190186 
	C199.706924,902.190186 204.982666,902.327393 210.241959,902.094177 
	C211.562805,902.035522 213.696198,901.043762 213.989563,900.048523 
	C216.937332,890.048584 219.579102,879.958374 222.528427,869.076599 
	C216.723572,869.076599 211.681839,869.076599 206.363922,869.076599 
	C206.363922,862.502380 206.363922,856.599182 206.363922,850.026550 
	C212.021927,850.026550 217.479935,849.765869 222.898407,850.116394 
	C226.631653,850.357910 228.126465,848.961853 228.995621,845.472107 
	C231.726242,834.508484 234.911545,823.657104 237.578339,812.679077 
	C238.340622,809.541077 239.716858,808.715149 242.686111,808.836304 
	C247.641464,809.038452 252.611069,808.891479 258.673340,808.891479 
	C255.029144,822.871887 251.581604,836.097839 247.953827,850.015198 
	C255.532242,850.015198 262.640167,850.177551 269.724854,849.844727 
	C270.821503,849.793213 272.351044,847.626770 272.765228,846.176880 
	C275.914917,835.151245 279.011230,824.102905 281.724182,812.964233 
	C282.544617,809.595764 284.044983,808.713013 287.205902,808.842285 
	C292.175507,809.045532 297.159485,808.896240 302.918396,808.896240 
	C299.261810,822.790771 295.746918,836.146851 292.103333,849.991882 
	C298.083435,849.991882 303.544800,849.991882 309.417358,849.991882 
	C309.417358,856.269714 309.417358,862.172974 309.417358,868.988831 
	C303.623352,868.988831 297.703888,869.178650 291.804230,868.918396 
	C288.199158,868.759399 286.531586,869.768982 285.721771,873.565552 
	C284.059418,881.359131 281.709015,889.005005 279.693237,896.725037 
	C279.291138,898.265015 279.118408,899.864990 278.706024,902.193054 
	C283.132355,902.193054 286.920074,902.302856 290.698029,902.157837 
	C293.650482,902.044617 294.967255,903.095398 294.863281,906.190918 
	C294.702820,910.968994 294.821014,915.756470 294.821014,921.150024 
	C288.743500,921.150024 283.282990,921.336060 277.843170,921.080505 
	C274.567810,920.926697 273.076477,922.153931 272.259705,925.247925 
	C269.162933,936.978333 265.749817,948.626099 262.731873,960.375854 
	C261.673248,964.497498 260.027771,966.631897 255.330017,966.146973 
	C250.744904,965.673584 246.072693,966.044006 240.714172,966.044006 
	C244.729462,950.906128 248.573196,936.414978 252.616730,921.170654 
	C244.837784,921.170654 238.032990,921.001038 231.253250,921.336914 
	C230.116455,921.393188 228.519104,923.473389 228.102737,924.900879 
	C225.544189,933.672852 223.263855,942.525940 220.797134,951.749512 
M266.179779,872.692932 
	C267.160583,870.451233 267.233856,868.897217 263.995972,868.956970 
	C257.854248,869.070374 251.705353,868.884033 245.568298,869.088623 
	C244.406326,869.127441 242.532242,870.187744 242.261673,871.139221 
	C239.387863,881.245972 236.771805,891.426025 233.923141,902.197205 
	C241.169724,902.197205 247.620102,902.038757 254.057129,902.262756 
	C257.357697,902.377686 258.743774,901.104797 259.504089,897.981445 
	C261.500854,889.779053 263.807526,881.652161 266.179779,872.692932 
z"/>
<path fill="#373635" opacity="1.000000" stroke="none" 
	d="
M383.424072,870.435181 
	C385.632141,865.172974 387.938538,860.345398 389.619629,855.309021 
	C390.695557,852.085449 392.775604,852.062256 395.393982,852.024231 
	C398.216705,851.983337 400.379547,852.176086 401.702393,855.420227 
	C409.362396,874.205750 417.236359,892.904114 425.056915,911.623962 
	C425.923492,913.698181 426.910095,915.722229 428.339172,918.865173 
	C432.269501,907.973328 435.750671,898.317078 439.238403,888.663208 
	C443.136597,877.873169 447.141266,867.119873 450.879211,856.274719 
	C451.957367,853.146606 453.389557,851.803711 456.906769,851.972900 
	C463.698547,852.299683 470.517181,852.068298 478.015289,852.068298 
	C474.079987,862.893066 470.393097,873.168884 466.611603,883.409851 
	C456.993103,909.458252 447.323639,935.487854 437.702057,961.535156 
	C436.756287,964.095459 436.095001,966.458435 432.362640,966.141296 
	C429.018250,965.857117 426.246216,966.261597 424.471008,962.082031 
	C416.537537,943.403687 408.170410,924.909485 399.946808,906.354614 
	C398.876160,903.938843 397.729675,901.556702 396.119385,898.082581 
	C394.505798,901.329895 393.214874,903.700623 392.123657,906.159912 
	C383.825745,924.861633 375.422943,943.519287 367.410889,962.343140 
	C365.699738,966.363403 362.965546,965.819397 359.852631,966.117859 
	C356.577484,966.431885 355.496033,964.646484 354.559540,962.106873 
	C341.270660,926.069763 327.946259,890.045776 314.648926,854.011780 
	C314.490601,853.582764 314.575348,853.064026 314.516937,852.093750 
	C322.751190,852.093750 330.875610,851.891235 338.969788,852.295166 
	C340.303741,852.361755 342.081512,854.888306 342.679138,856.615417 
	C349.200256,875.461609 355.526215,894.375305 361.908783,913.269531 
	C362.378571,914.660095 362.875183,916.041626 363.844574,918.816223 
	C370.623016,902.043762 376.940247,886.412476 383.424072,870.435181 
z"/>
<path fill="#363535" opacity="1.000000" stroke="none" 
	d="
M1302.999512,940.998047 
	C1307.950928,948.649719 1312.731323,955.984619 1317.951050,963.993530 
	C1307.772705,963.993530 1298.485596,964.148071 1289.214111,963.837769 
	C1287.710938,963.787415 1285.851074,961.955139 1284.876587,960.472778 
	C1275.366577,946.006714 1266.012695,931.437866 1256.602173,916.906372 
	C1255.980591,915.946655 1255.256592,915.053345 1254.284424,913.724670 
	C1250.346802,917.849426 1246.457520,921.666443 1242.931274,925.793640 
	C1242.022095,926.857788 1242.011719,928.895325 1242.000854,930.488525 
	C1241.926636,941.444641 1241.961792,952.401489 1241.961792,963.677612 
	C1233.220215,963.677612 1224.977173,963.677612 1216.242676,963.677612 
	C1216.149048,962.053833 1215.977051,960.456421 1215.976562,958.858948 
	C1215.962769,911.040649 1216.025757,863.222107 1215.858032,815.404358 
	C1215.843872,811.382996 1217.234497,809.905212 1220.860107,809.182251 
	C1227.652222,807.827820 1234.382202,806.160889 1241.894165,804.451904 
	C1241.894165,834.579285 1241.894165,863.921509 1241.894165,893.263733 
	C1242.262695,893.405884 1242.631226,893.548035 1242.999878,893.690186 
	C1248.862671,886.989014 1254.746338,880.305847 1260.582275,873.581116 
	C1265.817505,867.548645 1271.080811,861.537170 1276.167236,855.380371 
	C1278.272949,852.831360 1280.646729,851.921082 1283.935303,852.004761 
	C1292.256348,852.216736 1300.586426,852.075073 1310.268433,852.075073 
	C1305.162476,857.949768 1300.738281,863.135254 1296.209595,868.227966 
	C1289.572876,875.691223 1282.909546,883.132202 1276.157227,890.490540 
	C1273.648804,893.224121 1272.944092,895.348206 1275.406616,898.947693 
	C1284.803345,912.683594 1293.727661,926.742737 1302.999512,940.998047 
z"/>
<path fill="#373635" opacity="1.000000" stroke="none" 
	d="
M506.463806,955.594849 
	C493.211334,944.990845 487.659729,931.114380 486.879395,914.872620 
	C486.159637,899.892578 488.274628,885.741272 497.213318,873.125427 
	C515.819702,846.864929 555.167114,841.759888 579.228516,863.113770 
	C594.358154,876.540894 597.581421,894.032898 593.949707,913.281494 
	C593.290527,916.775452 590.690552,915.991455 588.499390,915.994873 
	C565.688477,916.030701 542.877441,916.021118 520.066467,916.023926 
	C518.262695,916.024170 516.458862,916.023865 514.782410,916.023865 
	C512.314270,924.409180 519.780823,938.395142 531.635681,941.951111 
	C546.077393,946.283142 559.892944,945.143921 572.608398,935.268005 
	C575.598450,941.197998 578.668457,946.861938 581.224426,952.749084 
	C581.681152,953.801025 580.441956,956.395569 579.251953,957.225342 
	C571.541748,962.601379 562.594910,964.688232 553.450806,965.542786 
	C536.947754,967.085205 520.814514,966.251770 506.463806,955.594849 
M545.233765,872.014404 
	C529.685608,870.366028 517.065308,879.912598 515.695312,895.708862 
	C533.363953,895.708862 551.032654,895.708862 568.708130,895.708862 
	C568.271729,882.218384 560.763000,874.482605 545.233765,872.014404 
z"/>
<path fill="#373535" opacity="1.000000" stroke="none" 
	d="
M1325.893066,910.971558 
	C1325.338257,884.896240 1335.617310,865.245728 1359.233398,854.639221 
	C1386.705566,842.300842 1425.993652,853.500549 1433.419922,889.900574 
	C1435.169067,898.474243 1434.803223,906.996277 1432.241333,915.943481 
	C1406.064697,915.943481 1379.837158,915.943481 1353.745972,915.943481 
	C1351.523315,925.227234 1359.393677,938.628174 1370.750122,941.974792 
	C1385.208496,946.235413 1398.989624,945.007324 1411.714722,935.392578 
	C1414.580688,941.047485 1417.333374,946.690491 1420.291138,952.223755 
	C1421.729126,954.914001 1420.371460,956.032043 1418.323242,957.359558 
	C1410.574097,962.382202 1401.878174,964.514771 1392.911499,965.463501 
	C1379.036377,966.931458 1365.198608,966.760071 1352.519653,959.918884 
	C1333.316895,949.557678 1326.052124,932.406006 1325.893066,910.971558 
M1389.398560,872.861389 
	C1372.728149,869.032104 1357.030518,876.562500 1354.530518,895.779541 
	C1372.263306,895.779541 1389.973022,895.779541 1407.663696,895.779541 
	C1408.124634,885.733398 1400.815552,874.848938 1389.398560,872.861389 
z"/>
<path fill="#373635" opacity="1.000000" stroke="none" 
	d="
M803.442566,895.282410 
	C816.973206,890.431458 830.495728,888.843079 844.320312,891.126282 
	C845.478699,883.300537 841.255310,876.624084 833.438843,874.004211 
	C822.604065,870.372559 811.796509,871.641541 801.077637,874.781189 
	C799.508850,875.240662 797.942566,875.708740 795.741455,876.360474 
	C793.839600,869.686523 792.009277,863.263672 790.068848,856.454346 
	C810.259155,848.413269 830.238831,847.193359 850.099365,855.360413 
	C863.467468,860.857666 868.517090,872.924744 869.789062,886.155762 
	C871.074646,899.527893 870.705872,913.056091 871.158142,926.512695 
	C871.325562,931.492493 871.116577,936.617493 872.251038,941.398193 
	C873.623657,947.182617 876.239075,952.672119 879.043213,960.253601 
	C877.819885,963.897461 872.811646,965.310425 867.360352,965.975464 
	C857.540710,967.173584 851.941101,961.555054 847.908875,953.533569 
	C833.295593,970.196045 802.565430,968.624756 790.120911,958.204712 
	C781.571838,951.046326 778.427734,941.853699 778.514587,931.317871 
	C778.657654,913.972778 787.234314,902.151367 803.442566,895.282410 
M820.479797,911.762268 
	C817.325378,913.178589 813.866821,914.157593 811.076477,916.097656 
	C804.215576,920.867676 804.014465,928.179199 805.229370,935.393250 
	C806.159729,940.917297 810.522949,944.062073 815.753906,944.580505 
	C820.938293,945.094238 826.376892,944.862122 831.485962,943.853149 
	C837.774231,942.611389 842.385559,938.175903 843.689148,931.985107 
	C844.967957,925.911499 844.791565,919.510742 844.937012,913.246277 
	C844.954590,912.489807 842.999084,911.017761 841.955139,911.015076 
	C835.057800,910.997253 828.159668,911.290588 820.479797,911.762268 
z"/>
<path fill="#373535" opacity="1.000000" stroke="none" 
	d="
M1585.637451,890.119690 
	C1588.497803,890.479980 1590.900391,890.819580 1593.315552,891.160950 
	C1594.048828,883.013855 1589.801392,876.449341 1582.154663,873.956421 
	C1571.144897,870.367065 1560.181519,871.665405 1549.318115,874.878662 
	C1547.920532,875.292053 1546.545044,875.780579 1544.591919,876.419983 
	C1542.670654,869.756653 1540.855591,863.461853 1538.653442,855.824341 
	C1546.296143,854.025940 1553.539307,851.835693 1560.943848,850.691711 
	C1572.416260,848.919189 1583.866699,849.915344 1594.894775,853.626526 
	C1611.379517,859.173889 1617.610474,872.389282 1618.863037,888.265625 
	C1619.933716,901.833740 1619.638672,915.506531 1620.081787,929.128723 
	C1620.238159,933.935486 1620.140381,938.899658 1621.338257,943.483765 
	C1622.680176,948.619263 1625.359253,953.405334 1627.820068,959.199524 
	C1621.349609,970.978760 1606.607178,968.996643 1596.435425,953.585510 
	C1582.897095,968.150024 1555.237549,970.381592 1539.190186,958.482178 
	C1522.246826,945.918518 1522.416992,911.791504 1545.276978,898.771484 
	C1557.737915,891.674255 1571.245972,890.071106 1585.637451,890.119690 
M1557.517212,918.082397 
	C1552.821655,924.129517 1551.651001,930.846313 1554.958130,937.719910 
	C1558.154907,944.364258 1564.455933,945.423157 1571.126587,945.110657 
	C1572.290283,945.056030 1573.457642,945.082031 1574.621704,945.032410 
	C1583.896240,944.637024 1590.816162,939.783691 1592.794189,930.849854 
	C1594.165405,924.656128 1593.951050,918.111389 1594.465942,911.452759 
	C1580.909058,909.136353 1568.768555,909.113220 1557.517212,918.082397 
z"/>
<path fill="#373635" opacity="1.000000" stroke="none" 
	d="
M1948.436279,852.074341 
	C1954.884521,852.073730 1960.898682,852.347290 1966.872314,851.973572 
	C1970.598511,851.740479 1972.052124,853.308838 1973.289062,856.492676 
	C1982.081177,879.123901 1991.032349,901.693481 1999.949097,924.276245 
	C2000.416138,925.459045 2001.028809,926.584290 2002.107666,928.865540 
	C2005.708496,918.848572 2008.945312,909.881348 2012.155884,900.904846 
	C2017.532104,885.873779 2022.965332,870.862366 2028.192871,855.779602 
	C2029.174561,852.947083 2030.531250,851.918091 2033.538086,852.005920 
	C2040.841919,852.219299 2048.156006,852.075256 2056.326416,852.075256 
	C2055.246094,855.402405 2054.471436,858.184692 2053.450195,860.873230 
	C2038.274292,900.823547 2023.081299,940.767395 2007.857300,980.699341 
	C2002.220337,995.484680 1989.819824,1001.868347 1975.760132,1005.738342 
	C1970.255981,1007.253418 1964.408936,1007.522583 1958.215820,1008.433105 
	C1958.215820,1000.290771 1958.215820,993.054443 1958.215820,985.417908 
	C1962.815308,984.776855 1967.587402,984.417175 1972.218262,983.409058 
	C1986.199463,980.365295 1990.382812,974.521545 1986.248535,960.923523 
	C1981.616577,945.688538 1975.714478,930.820496 1969.949097,915.954041 
	C1962.192505,895.953125 1954.042603,876.104736 1946.047363,856.196472 
	C1945.197021,854.079041 1943.976685,851.870789 1948.436279,852.074341 
z"/>
<path fill="#373535" opacity="1.000000" stroke="none" 
	d="
M1034.923828,943.999756 
	C1034.921509,928.668213 1035.003540,913.835815 1034.859131,899.005554 
	C1034.822144,895.209534 1034.437866,891.334778 1033.579590,887.643494 
	C1030.470825,874.271606 1016.732056,868.195312 1002.565186,873.791626 
	C1000.406799,874.644165 998.307007,875.709412 996.311218,876.896667 
	C991.471497,879.775513 988.781189,883.428589 988.896179,889.756897 
	C989.307800,912.413452 989.056946,935.082031 989.056702,957.746094 
	C989.056702,959.561523 989.056763,961.376953 989.056763,963.596375 
	C980.349426,963.596375 971.991089,963.596375 963.342407,963.596375 
	C963.342407,926.492004 963.342407,889.595703 963.342407,852.105469 
	C969.062744,852.105469 974.516052,851.957764 979.948059,852.231873 
	C981.016724,852.285828 982.274475,853.801880 982.968933,854.935242 
	C984.264099,857.048950 985.209595,859.376953 986.551941,862.131226 
	C989.153931,860.020691 991.336182,857.772461 993.933960,856.219238 
	C1014.728943,843.785706 1055.661743,847.688538 1060.102051,886.393921 
	C1060.498901,889.852356 1060.892822,893.336304 1060.904175,896.809692 
	C1060.976440,918.947510 1060.941040,941.085754 1060.941040,963.613403 
	C1052.318970,963.613403 1044.080078,963.613403 1034.923828,963.613403 
	C1034.923828,957.321289 1034.923828,950.910461 1034.923828,943.999756 
z"/>
<path fill="#373736" opacity="1.000000" stroke="none" 
	d="
M1487.807129,887.008606 
	C1487.806885,912.795410 1487.806885,938.083252 1487.806885,963.688599 
	C1478.820190,963.688599 1470.402344,963.688599 1461.268799,963.688599 
	C1461.268799,933.913940 1461.268799,904.203491 1461.268799,873.938354 
	C1455.658203,873.938354 1450.734619,873.938354 1445.454102,873.938354 
	C1445.454102,866.500977 1445.454102,859.622253 1445.454102,852.067566 
	C1448.707764,852.067566 1451.853882,851.777771 1454.925293,852.133118 
	C1459.980713,852.717957 1461.652832,850.974915 1462.200806,845.698181 
	C1463.554810,832.658752 1468.898804,821.413452 1479.866943,813.424011 
	C1490.172363,805.917358 1501.672485,805.213196 1513.665771,807.454895 
	C1517.385864,808.150208 1521.045532,809.169800 1525.525757,810.228333 
	C1522.929932,817.088196 1520.553711,823.368042 1518.045166,829.997253 
	C1509.305298,828.098999 1500.465454,824.707092 1493.194702,832.710388 
	C1488.400757,837.987366 1486.422363,845.048279 1487.746338,852.050964 
	C1494.879761,852.050964 1502.132080,852.050964 1509.708740,852.050964 
	C1509.708740,859.474731 1509.708740,866.354309 1509.708740,873.756653 
	C1502.525146,873.756653 1495.598022,873.756653 1487.807251,873.756653 
	C1487.807251,878.342834 1487.807251,882.426270 1487.807129,887.008606 
z"/>
<path fill="#373635" opacity="1.000000" stroke="none" 
	d="
M646.809631,917.990662 
	C646.871826,922.150635 646.721802,925.830994 647.035889,929.471375 
	C648.013428,940.800964 656.216431,946.225403 668.564941,943.589233 
	C672.577148,942.732666 676.442627,941.188538 680.979736,939.769958 
	C680.979736,946.846680 681.045715,953.900085 680.895142,960.948792 
	C680.876587,961.817749 679.832764,963.257629 679.045105,963.429504 
	C664.614685,966.578491 650.081543,968.725281 636.173523,961.693237 
	C626.200073,956.650452 621.565857,947.476135 621.123169,936.848694 
	C620.327271,917.744385 620.463440,898.601135 620.216919,879.474121 
	C620.191895,877.531189 620.213562,875.587524 620.213562,873.201904 
	C615.940613,873.201904 612.338562,873.201904 608.292236,873.201904 
	C608.292236,866.064819 608.292236,859.385681 608.292236,852.223022 
	C612.049316,852.223022 615.648865,852.223022 620.218750,852.223022 
	C620.218750,846.052307 620.446899,840.303772 620.138184,834.584229 
	C619.933899,830.799072 621.261108,828.824585 624.839355,827.632812 
	C631.891174,825.284119 638.827942,822.590027 646.648560,819.733337 
	C646.648560,830.707825 646.648560,841.051880 646.648560,851.864990 
	C656.933411,851.864990 666.526611,851.864990 676.590637,851.864990 
	C676.590637,859.016846 676.590637,865.698975 676.590637,873.045044 
	C666.855835,873.045044 657.137451,873.045044 646.809814,873.045044 
	C646.809814,888.292175 646.809814,902.892517 646.809631,917.990662 
z"/>
<path fill="#363535" opacity="1.000000" stroke="none" 
	d="
M1925.965576,908.000000 
	C1926.217529,918.636902 1926.166260,928.793579 1926.825439,938.903931 
	C1927.286011,945.968811 1930.900879,951.474365 1937.551880,954.506531 
	C1935.581055,962.283264 1925.165283,967.377380 1913.878418,965.867493 
	C1906.394531,964.866272 1900.957031,957.400269 1900.077759,947.311584 
	C1899.947876,945.821106 1899.972778,944.314880 1899.972412,942.815918 
	C1899.963501,900.332031 1899.997437,857.848022 1899.888428,815.364441 
	C1899.879395,811.862549 1900.559692,809.968567 1904.407227,809.264954 
	C1911.411377,807.984009 1918.311035,806.131592 1925.965576,804.352295 
	C1925.965576,839.030701 1925.965576,873.265381 1925.965576,908.000000 
z"/>
<path fill="#373635" opacity="1.000000" stroke="none" 
	d="
M1124.993042,949.947021 
	C1127.113159,951.805359 1129.033325,953.356079 1130.943359,954.898499 
	C1127.958984,962.835144 1118.844971,967.245544 1108.197388,965.935791 
	C1100.427368,964.979980 1094.935913,958.243958 1094.061890,948.397339 
	C1093.812134,945.582214 1093.869995,942.735474 1093.869141,939.903198 
	C1093.856812,898.571777 1093.947510,857.239929 1093.735352,815.909546 
	C1093.710938,811.160095 1095.458252,809.685669 1099.705688,808.920044 
	C1106.194214,807.750366 1112.571655,805.965210 1119.870972,804.234009 
	C1119.870972,806.835632 1119.870850,808.762695 1119.870972,810.689819 
	C1119.872437,850.521301 1119.886108,890.352844 1119.863647,930.184326 
	C1119.859741,937.105469 1120.467529,943.833435 1124.993042,949.947021 
z"/>
<path fill="#373635" opacity="1.000000" stroke="none" 
	d="
M727.057617,956.913940 
	C727.057617,959.365479 727.057617,961.328613 727.057617,963.646851 
	C718.359985,963.646851 710.121826,963.646851 701.467163,963.646851 
	C701.467163,926.677856 701.467163,889.686401 701.467163,852.381592 
	C709.874939,852.381592 718.106445,852.381592 726.941040,852.381592 
	C726.941040,855.388062 726.941040,858.244202 726.941040,862.288513 
	C736.679871,852.462646 747.749756,849.304626 759.988586,850.158142 
	C764.562439,850.477112 769.108032,851.722473 773.552002,852.957520 
	C774.484497,853.216675 775.789551,855.683228 775.437683,856.458740 
	C772.431824,863.084534 769.083435,869.554932 765.864563,876.017517 
	C764.862000,875.759888 764.343506,875.727356 763.926147,875.504944 
	C742.267822,863.960815 727.321106,882.533569 727.120850,899.488281 
	C726.896667,918.464966 727.061890,937.446289 727.057617,956.913940 
z"/>
<path fill="#373736" opacity="1.000000" stroke="none" 
	d="
M1159.052490,896.000061 
	C1159.052612,888.541260 1159.052612,881.582397 1159.052612,874.082520 
	C1154.389282,874.082520 1150.146973,874.082520 1145.450195,874.082520 
	C1145.450195,866.679993 1145.450195,859.801819 1145.450195,852.614746 
	C1146.182617,852.462341 1147.111816,852.103882 1148.042358,852.100525 
	C1159.192383,852.059998 1170.342896,852.121521 1181.492432,852.035217 
	C1184.248657,852.013794 1185.886841,852.571289 1185.876099,855.829224 
	C1185.759033,891.437256 1185.721802,927.045593 1185.655151,962.653809 
	C1185.654785,962.804993 1185.542603,962.955872 1185.303711,963.558228 
	C1176.962646,963.558228 1168.424561,963.558228 1159.052490,963.558228 
	C1159.052490,941.273376 1159.052490,918.886719 1159.052490,896.000061 
z"/>
<path fill="#373736" opacity="1.000000" stroke="none" 
	d="
M912.138550,964.008728 
	C910.041260,964.007507 908.423706,964.007507 906.320679,964.007507 
	C906.320679,933.893677 906.320679,904.336792 906.320679,873.850647 
	C902.611511,873.850647 899.368469,873.735413 896.137573,873.884338 
	C893.126709,874.023132 891.964783,872.815247 892.045044,869.789612 
	C892.194397,864.158081 892.087891,858.519836 892.087891,852.478027 
	C905.688477,852.478027 918.899048,852.478027 932.533020,852.478027 
	C932.533020,889.420532 932.533020,926.402161 932.533020,964.009949 
	C925.822388,964.009949 919.220337,964.009949 912.138550,964.008728 
z"/>
<path fill="#363535" opacity="1.000000" stroke="none" 
	d="
M1865.044800,899.000000 
	C1865.044800,920.786743 1865.044800,942.073486 1865.044800,963.679810 
	C1856.285400,963.679810 1848.032593,963.679810 1839.081055,963.679810 
	C1839.081055,933.986084 1839.081055,904.287537 1839.081055,873.999329 
	C1834.175781,873.999329 1829.931885,873.999329 1825.252319,873.999329 
	C1825.252319,866.549133 1825.252319,859.682068 1825.252319,852.441528 
	C1838.349976,852.441528 1851.395020,852.441528 1865.044800,852.441528 
	C1865.044800,867.942749 1865.044800,883.221375 1865.044800,899.000000 
z"/>
<path fill="#373635" opacity="1.000000" stroke="none" 
	d="
M1839.352905,815.591431 
	C1846.560913,807.325562 1856.409912,806.546814 1862.978760,813.421814 
	C1869.094727,819.822754 1868.580566,829.840332 1861.842529,835.566101 
	C1856.511230,840.096436 1848.841797,840.265503 1842.987427,835.981384 
	C1836.845337,831.486755 1835.471436,824.304321 1839.352905,815.591431 
z"/>
<path fill="#373735" opacity="1.000000" stroke="none" 
	d="
M1159.759033,832.028564 
	C1155.862061,823.748962 1157.119751,817.041077 1163.216675,812.105042 
	C1168.577515,807.764893 1175.898560,807.631531 1181.638306,811.769531 
	C1188.195679,816.497070 1189.759766,826.209351 1184.982910,832.538147 
	C1179.452759,839.864868 1169.720337,841.233398 1163.072754,835.568909 
	C1161.943115,834.606384 1161.005737,833.417847 1159.759033,832.028564 
z"/>
<path fill="#373635" opacity="1.000000" stroke="none" 
	d="
M934.694824,827.283569 
	C932.526855,834.111267 928.304871,838.109741 921.498291,838.943542 
	C915.280457,839.705261 910.478149,837.054626 907.088867,832.010864 
	C903.657715,826.904846 904.109619,819.571960 907.814453,814.733521 
	C911.757996,809.583374 918.718018,807.426636 924.758057,809.483032 
	C930.651184,811.489380 934.749817,817.055847 934.966858,823.419128 
	C935.006287,824.573669 934.867493,825.734375 934.694824,827.283569 
z"/>
<path fill="#65BB51" opacity="1.000000" stroke="none" 
	d="
M266.085236,873.094055 
	C263.807526,881.652161 261.500854,889.779053 259.504089,897.981445 
	C258.743774,901.104797 257.357697,902.377686 254.057129,902.262756 
	C247.620102,902.038757 241.169724,902.197205 233.923141,902.197205 
	C236.771805,891.426025 239.387863,881.245972 242.261673,871.139221 
	C242.532242,870.187744 244.406326,869.127441 245.568298,869.088623 
	C251.705353,868.884033 257.854248,869.070374 263.995972,868.956970 
	C267.233856,868.897217 267.160583,870.451233 266.085236,873.094055 
z"/>
<path fill="#64BB51" opacity="1.000000" stroke="none" 
	d="
M545.683716,872.027222 
	C560.763000,874.482605 568.271729,882.218384 568.708130,895.708862 
	C551.032654,895.708862 533.363953,895.708862 515.693604,895.714172 
	C517.065308,879.912598 529.685608,870.366028 545.683716,872.027222 
z"/>
<path fill="#64BB51" opacity="1.000000" stroke="none" 
	d="
M1389.811523,872.923462 
	C1400.815552,874.848938 1408.124634,885.733398 1407.663696,895.779541 
	C1389.973022,895.779541 1372.263306,895.779541 1354.530518,895.779541 
	C1357.030518,876.562500 1372.728149,869.032104 1389.811523,872.923462 
z"/>
<path fill="#65BB51" opacity="1.000000" stroke="none" 
	d="
M820.870789,911.622437 
	C828.159668,911.290588 835.057800,910.997253 841.955139,911.015076 
	C842.999084,911.017761 844.954590,912.489807 844.937012,913.246277 
	C844.791565,919.510742 844.967957,925.911499 843.689148,931.985107 
	C842.385559,938.175903 837.774231,942.611389 831.485962,943.853149 
	C826.376892,944.862122 820.938293,945.094238 815.753906,944.580505 
	C810.522949,944.062073 806.159729,940.917297 805.229370,935.393250 
	C804.014465,928.179199 804.215576,920.867676 811.076477,916.097656 
	C813.866821,914.157593 817.325378,913.178589 820.870789,911.622437 
z"/>
<path fill="#64BA51" opacity="1.000000" stroke="none" 
	d="
M1557.776367,917.820557 
	C1568.768555,909.113220 1580.909058,909.136353 1594.465942,911.452759 
	C1593.951050,918.111389 1594.165405,924.656128 1592.794189,930.849854 
	C1590.816162,939.783691 1583.896240,944.637024 1574.621704,945.032410 
	C1573.457642,945.082031 1572.290283,945.056030 1571.126587,945.110657 
	C1564.455933,945.423157 1558.154907,944.364258 1554.958130,937.719910 
	C1551.651001,930.846313 1552.821655,924.129517 1557.776367,917.820557 
z"/>
</svg>