<svg version="1.1" id="Layer_1" xmlns="http://www.w3.org/2000/svg" xmlns:xlink="http://www.w3.org/1999/xlink" x="0px" y="0px"
	 width="100%" viewBox="0 0 2226 1130" enable-background="new 0 0 2226 1130" xml:space="preserve">
<path fill="#FFFFFF" opacity="1.000000" stroke="none" 
	d="
M1.000000,705.000000 
	C1.000000,470.373932 1.000000,235.747879 1.000000,1.000000 
	C560.029358,1.000000 1119.058716,1.000000 1678.401367,1.337996 
	C1666.521729,7.395159 1654.191895,12.841528 1642.159058,18.879755 
	C1583.183350,48.474518 1524.343628,78.340492 1465.349487,107.898369 
	C1360.081055,160.641251 1254.733276,213.225998 1149.438232,265.915924 
	C1146.559082,267.356567 1143.903809,269.244293 1141.144165,270.923553 
	C1142.389526,271.937134 1143.040527,271.996368 1143.691406,271.996399 
	C1200.690308,272.000488 1257.689209,272.012085 1314.688110,271.950562 
	C1316.732178,271.948364 1318.911377,271.553284 1320.797485,270.779785 
	C1335.172363,264.884796 1349.578369,259.051941 1363.805542,252.813690 
	C1387.993652,242.207825 1412.061523,231.327988 1436.172607,220.546921 
	C1455.519409,211.896149 1474.851318,203.212402 1494.197021,194.559280 
	C1510.443604,187.292297 1526.710693,180.070969 1542.950439,172.788757 
	C1564.742554,163.016876 1586.462036,153.081314 1608.314453,143.446716 
	C1629.904175,133.927917 1651.596436,124.639908 1673.303223,115.390343 
	C1677.261963,113.703468 1681.244629,111.958000 1685.921265,113.994781 
	C1700.763794,120.459023 1715.782959,126.516724 1730.637085,132.955109 
	C1752.635254,142.490112 1774.569580,152.173447 1796.495361,161.874329 
	C1818.293213,171.518555 1840.058228,181.237442 1861.817017,190.969604 
	C1884.871216,201.281250 1907.914673,211.616791 1930.936768,221.999954 
	C1945.551025,228.591156 1960.065186,235.405655 1974.718262,241.908325 
	C1993.359253,250.180756 2012.039917,258.370392 2030.824341,266.309692 
	C2036.470947,268.696259 2042.509399,271.710388 2048.387695,271.753143 
	C2104.883545,272.164124 2161.383789,272.003784 2217.882568,271.976868 
	C2218.965576,271.976349 2220.048340,271.608795 2222.287109,271.202942 
	C2210.484131,264.883698 2200.000000,259.100616 2189.363525,253.612534 
	C2169.548828,243.388641 2149.722168,233.182526 2129.766113,223.238678 
	C2034.267578,175.653275 1938.732910,128.139923 1843.191040,80.641571 
	C1811.767944,65.019676 1780.274414,49.539364 1748.833374,33.953320 
	C1738.183716,28.673977 1727.632568,23.195784 1716.971191,17.940454 
	C1705.353638,12.213697 1693.660278,6.640262 1682.000000,1.000007 
	C1863.606812,1.000000 2045.213501,1.000000 2227.000000,1.000000 
	C2227.000000,235.362686 2227.000000,469.725403 2226.531250,704.540161 
	C1907.488281,704.992188 1588.914062,704.992188 1270.452271,704.992188 
	C1270.452271,730.525208 1270.452271,755.422180 1270.452271,780.893982 
	C1265.747437,776.914185 1261.336304,773.326477 1257.085327,769.558044 
	C1247.406250,760.977234 1237.737427,752.382446 1228.189941,743.656189 
	C1214.962402,731.566406 1201.715576,719.490784 1188.784546,707.088501 
	C1185.629395,704.062439 1182.644287,702.903076 1178.359741,702.916382 
	C1038.295776,703.351013 898.231384,703.640625 758.167175,704.008301 
	C646.767334,704.300659 535.367798,704.827332 423.967804,704.959534 
	C282.978729,705.126892 141.989288,705.000000 1.000000,705.000000 
M1251.999512,736.594360 
	C1251.999512,589.888855 1251.999512,443.183380 1251.999512,296.303925 
	C1213.791504,296.303925 1177.074951,296.303925 1139.199219,296.303925 
	C1139.199219,350.335785 1139.199219,404.067902 1139.199219,458.989899 
	C1133.083618,453.532379 1127.978149,449.405029 1123.377808,444.775635 
	C1115.452271,436.800018 1108.042114,428.309357 1100.062744,420.390472 
	C1067.717651,388.290131 1035.233276,356.330170 1002.809692,324.308777 
	C977.618896,299.430481 952.467102,274.512543 927.224670,249.686707 
	C924.321716,246.831665 920.947998,244.455292 917.374756,241.512939 
	C917.374756,389.467621 917.374756,536.646851 917.374756,683.750244 
	C955.021057,683.750244 992.290894,683.750244 1030.263916,683.750244 
	C1030.263916,629.386047 1030.263916,575.270203 1030.263916,520.023254 
	C1042.495605,531.459473 1054.071411,541.723145 1065.004883,552.630676 
	C1083.228516,570.811157 1100.929688,589.514587 1119.071045,607.779053 
	C1128.869995,617.644531 1139.139893,627.041748 1149.171265,636.677368 
	C1158.601685,645.735779 1168.093506,654.733276 1177.373779,663.943604 
	C1183.222168,669.747925 1188.755005,675.871765 1194.383301,681.895447 
	C1197.964966,685.728760 1201.372559,689.727295 1205.013184,693.502441 
	C1217.553711,706.506653 1230.052979,719.555115 1242.844238,732.309692 
	C1245.207764,734.666504 1248.856567,735.734375 1251.999512,736.594360 
M1916.000000,523.388184 
	C1915.666748,520.150574 1915.800171,516.778870 1914.915527,513.699585 
	C1911.847168,503.019196 1909.454224,491.964661 1904.831177,481.964600 
	C1900.701050,473.030334 1894.258423,465.212250 1886.383545,458.626678 
	C1878.758911,452.250488 1870.308350,447.686188 1861.281128,444.001556 
	C1838.540283,434.719482 1814.369019,434.052338 1790.379150,433.152405 
	C1775.176636,432.582123 1759.912842,433.646027 1744.676514,433.973358 
	C1744.177002,433.984100 1743.666260,433.883179 1743.178345,433.954498 
	C1727.211060,436.290192 1711.288940,434.867950 1694.657837,433.704346 
	C1695.135986,425.032898 1695.595459,416.701874 1696.071167,408.074860 
	C1702.919434,407.700043 1709.320923,407.009766 1715.715698,407.067566 
	C1730.959961,407.205231 1746.199463,407.811401 1761.443726,408.008423 
	C1773.941040,408.169983 1786.454468,408.314423 1798.934448,407.811951 
	C1802.560791,407.665985 1806.917236,406.158569 1809.534058,403.749237 
	C1822.215210,392.073456 1834.406616,379.866211 1846.794556,367.871216 
	C1857.268311,357.729797 1867.936157,347.782745 1878.222290,337.455170 
	C1889.918335,325.712158 1901.314453,313.669373 1912.758789,301.678375 
	C1914.126709,300.245117 1914.977783,298.318787 1916.344360,296.191589 
	C1914.634766,296.101929 1913.666992,296.006866 1912.699219,296.006775 
	C1837.700684,295.999023 1762.702148,295.942993 1687.703857,296.085693 
	C1680.353149,296.099701 1672.904785,296.796173 1665.676880,298.127136 
	C1652.444214,300.563843 1639.567383,304.335297 1627.718140,311.029236 
	C1615.165405,318.120636 1605.162720,327.803711 1597.887939,340.236176 
	C1588.215210,356.767029 1583.608643,375.003448 1583.261841,393.807617 
	C1582.832153,417.110443 1580.931519,440.605743 1585.173706,463.738922 
	C1587.088013,474.178711 1589.912231,484.691742 1594.056763,494.434235 
	C1603.719482,517.148682 1621.955078,530.917236 1644.877930,538.473389 
	C1660.707031,543.691223 1677.221191,545.957458 1693.889771,545.925659 
	C1718.627808,545.878540 1743.364258,545.268921 1768.102661,545.027466 
	C1780.288330,544.908569 1792.476807,545.078308 1804.628296,545.117371 
	C1804.628296,555.008606 1804.628296,563.397461 1804.628296,572.142578 
	C1730.656372,572.142578 1657.055420,572.142578 1583.316528,572.142578 
	C1583.316528,609.562988 1583.316528,646.614929 1583.316528,684.479614 
	C1594.530640,683.976257 1605.403809,683.039185 1616.272827,683.082458 
	C1652.681396,683.227295 1689.088257,683.975037 1725.496338,684.004517 
	C1755.565918,684.028809 1785.635376,683.283813 1815.706177,683.035217 
	C1830.852539,682.909973 1845.422852,679.965881 1859.556274,674.737183 
	C1879.238159,667.455750 1894.313477,654.550476 1904.357422,636.211121 
	C1913.196289,620.072327 1916.444824,602.306091 1916.913818,584.109070 
	C1917.325928,568.119995 1917.063843,552.111511 1916.954224,536.112549 
	C1916.927368,532.179504 1916.334595,528.250244 1916.000000,523.388184 
M1278.000000,678.381958 
	C1278.000000,680.148315 1278.000000,681.914734 1278.000000,683.236694 
	C1371.294312,683.236694 1463.955322,683.236694 1556.338745,683.236694 
	C1556.338745,645.776245 1556.338745,609.135071 1556.338745,572.000000 
	C1553.916382,572.000000 1552.297241,571.972595 1550.679199,572.004211 
	C1533.939819,572.330750 1517.201782,572.867493 1500.461182,572.956299 
	C1470.801270,573.113586 1441.139160,573.124329 1411.479858,572.910034 
	C1404.379150,572.858765 1397.286743,571.681030 1390.239380,571.026001 
	C1390.239380,562.352539 1390.239380,554.419800 1390.239380,545.376282 
	C1445.905640,545.376282 1501.341553,545.376282 1556.208008,545.376282 
	C1556.208008,507.599121 1556.208008,470.935059 1556.208008,433.999481 
	C1553.671753,433.999481 1552.025024,433.970856 1550.379517,434.003937 
	C1534.140137,434.330261 1517.901855,434.874725 1501.661255,434.955902 
	C1470.834839,435.109985 1440.006592,435.106110 1409.180542,434.912933 
	C1402.878906,434.873444 1396.584351,433.713043 1390.348877,433.075745 
	C1390.348877,424.389496 1390.348877,416.325531 1390.348877,408.001038 
	C1409.174194,408.001038 1427.651733,407.999634 1446.129395,408.001434 
	C1464.625610,408.003235 1483.122070,408.040497 1501.618164,408.002716 
	C1519.962280,407.965271 1538.317993,408.269135 1556.290283,407.886993 
	C1556.290283,369.782501 1556.290283,333.114685 1556.290283,296.286072 
	C1463.108398,296.286072 1370.734985,296.286072 1278.000000,296.286072 
	C1278.000000,423.525940 1278.000000,550.467896 1278.000000,678.381958 
M2139.000000,673.474243 
	C2139.000000,585.063171 2139.000000,496.652161 2139.000000,407.883789 
	C2166.993164,407.883789 2194.262451,407.883789 2221.702148,407.883789 
	C2221.702148,370.472595 2221.702148,333.421234 2221.702148,296.339172 
	C2129.022949,296.339172 2036.642334,296.339172 1943.577393,296.339172 
	C1943.577393,333.696411 1943.577393,370.702362 1943.577393,408.234558 
	C1971.348145,408.234558 1999.072876,408.234558 2027.147217,408.234558 
	C2027.147217,500.352936 2027.147217,591.949524 2027.147217,683.688477 
	C2064.557373,683.688477 2101.607910,683.688477 2139.000000,683.688477 
	C2139.000000,680.406006 2139.000000,677.434021 2139.000000,673.474243 
z"/>
<path fill="#65BC50" opacity="1.000000" stroke="none" 
	d="
M1.000000,705.399963 
	C141.989288,705.000000 282.978729,705.126892 423.967804,704.959534 
	C535.367798,704.827332 646.767334,704.300659 758.167175,704.008301 
	C898.231384,703.640625 1038.295776,703.351013 1178.359741,702.916382 
	C1182.644287,702.903076 1185.629395,704.062439 1188.784546,707.088501 
	C1201.715576,719.490784 1214.962402,731.566406 1228.189941,743.656189 
	C1237.737427,752.382446 1247.406250,760.977234 1257.085327,769.558044 
	C1261.336304,773.326477 1265.747437,776.914185 1270.452271,780.893982 
	C1270.452271,755.422180 1270.452271,730.525208 1270.452271,704.992188 
	C1588.914062,704.992188 1907.488281,704.992188 2226.531250,704.996094 
	C2227.000000,705.444458 2227.000000,705.888916 2226.643555,706.856201 
	C2223.527100,720.546509 2220.761719,733.712769 2218.008789,746.881714 
	C2213.994629,766.085876 2210.003174,785.294739 2205.977051,804.496338 
	C2201.995361,823.486023 2197.990723,842.470886 2193.982178,861.454956 
	C2190.328369,878.760071 2186.625000,896.054749 2183.001221,913.366150 
	C2180.509521,925.271423 2178.186523,937.212219 2175.662354,949.110413 
	C2172.509277,963.971008 2169.210449,978.800537 2166.004639,993.649963 
	C2162.691406,1008.998413 2159.378662,1024.347168 2156.130371,1039.709473 
	C2153.043701,1054.308350 2150.056641,1068.928223 2146.997314,1083.532837 
	C2143.682129,1099.358887 2140.333740,1115.177856 2137.000000,1131.000000 
	C2137.000000,1131.000000 2136.500000,1131.000000 2136.033936,1130.624268 
	C2128.502686,1129.832642 2121.437744,1129.416138 2114.372559,1129.001099 
	C2103.041016,1128.335449 2091.710449,1127.659668 2080.377930,1127.008423 
	C2062.779297,1125.997070 2045.178955,1125.009888 2027.580078,1123.999023 
	C2016.237427,1123.347412 2004.897461,1122.650391 1993.553955,1122.012451 
	C1981.225220,1121.318848 1968.892944,1120.686890 1956.563965,1119.996826 
	C1945.068115,1119.353516 1933.574585,1118.665649 1922.079590,1118.004272 
	C1910.408081,1117.332764 1898.735718,1116.671265 1887.063965,1116.002563 
	C1869.623901,1115.003662 1852.184204,1113.997437 1834.743896,1113.003174 
	C1822.914062,1112.328735 1811.083496,1111.670166 1799.253174,1111.003662 
	C1787.425171,1110.337158 1775.596924,1109.676147 1763.769409,1109.000244 
	C1752.263672,1108.342896 1740.759155,1107.662842 1729.253418,1107.005737 
	C1717.415405,1106.329590 1705.576050,1105.676270 1693.738037,1105.000244 
	C1682.232300,1104.343140 1670.727661,1103.663086 1659.221924,1103.005737 
	C1647.394409,1102.329834 1635.565796,1101.676270 1623.738281,1101.000244 
	C1612.243042,1100.343140 1600.749146,1099.662720 1589.253906,1099.005737 
	C1577.426514,1098.329712 1565.597412,1097.683105 1553.770508,1096.998291 
	C1542.577393,1096.350220 1531.386963,1095.657959 1520.194214,1095.005615 
	C1508.520386,1094.325317 1496.845337,1093.669312 1485.170776,1093.002563 
	C1473.502319,1092.336060 1461.833740,1091.669556 1450.165283,1091.002808 
	C1438.501709,1090.336304 1426.838013,1089.669067 1415.174438,1089.003052 
	C1403.498535,1088.336060 1391.822388,1087.677246 1380.146973,1087.001343 
	C1368.791016,1086.343994 1357.436523,1085.662109 1346.080688,1085.004517 
	C1334.410400,1084.328857 1322.739136,1083.669312 1311.068359,1083.002686 
	C1299.400269,1082.336182 1287.731689,1081.676636 1276.064087,1081.001099 
	C1264.705933,1080.343384 1253.348877,1079.662354 1241.990723,1079.004150 
	C1230.343750,1078.329224 1218.695557,1077.676270 1207.048584,1077.001099 
	C1195.692993,1076.343018 1184.338745,1075.661987 1172.983154,1075.004395 
	C1161.314575,1074.328735 1149.644775,1073.676758 1137.976196,1073.000732 
	C1126.638672,1072.343750 1115.302002,1071.672363 1103.965210,1071.001587 
	C1092.772461,1070.339600 1081.580688,1069.656860 1070.386963,1069.008423 
	C1058.573364,1068.324219 1046.757446,1067.680664 1034.943604,1066.999756 
	C1023.622070,1066.347290 1012.302063,1065.669434 1000.981323,1065.002808 
	C989.660522,1064.336304 978.339661,1063.669189 967.018860,1063.002930 
	C955.686523,1062.335815 944.354309,1061.668823 933.021912,1061.002808 
	C921.668823,1060.335449 910.315430,1059.672729 898.962524,1059.001587 
	C887.778076,1058.340332 876.594666,1057.662231 865.409790,1057.007568 
	C848.169678,1055.998413 830.927795,1055.018433 813.688416,1053.996216 
	C802.990479,1053.361816 792.297546,1052.643677 781.599304,1052.013794 
	C764.173401,1050.987671 746.744385,1050.015015 729.317993,1048.996582 
	C718.335388,1048.354858 707.355164,1047.672729 696.374023,1047.005249 
	C679.933289,1046.005981 663.493164,1044.994751 647.051758,1044.005249 
	C635.723022,1043.323364 624.392151,1042.677002 613.063049,1042.000854 
	C602.060608,1041.343994 591.059265,1040.669312 580.057434,1040.002930 
	C569.049316,1039.336060 558.041138,1038.669434 547.033020,1038.002808 
	C536.024353,1037.336060 525.014954,1036.682007 514.007263,1035.999756 
	C498.057983,1035.011475 482.110474,1033.994385 466.161224,1033.005981 
	C455.160706,1032.324097 444.157959,1031.679199 433.157196,1031.001221 
	C417.062744,1030.009521 400.968964,1029.007324 384.875427,1028.000610 
	C374.372620,1027.343628 363.870728,1026.671509 353.368469,1026.005249 
	C337.602905,1025.004761 321.836609,1024.015137 306.072052,1022.999207 
	C290.797089,1022.014832 275.523407,1021.010681 260.250122,1020.000671 
	C245.287460,1019.011414 230.325653,1018.009033 215.364120,1017.002625 
	C200.595245,1016.009155 185.825027,1015.034180 171.059418,1013.993958 
	C157.469681,1013.036743 143.884583,1012.013245 130.298798,1011.000793 
	C117.032578,1010.012207 103.769829,1008.976685 90.502182,1008.007874 
	C82.486084,1007.422485 82.429146,1007.479431 79.918243,999.734375 
	C76.689445,989.774963 73.394943,979.832336 70.421295,969.795776 
	C65.314316,952.558960 60.312641,935.288940 55.489799,917.970703 
	C49.842712,897.692566 44.298031,877.383667 38.965927,857.020813 
	C34.818817,841.183472 31.102365,825.233765 27.128723,809.350464 
	C21.082165,785.181458 15.054481,761.007202 8.861215,736.875671 
	C6.461918,727.526978 3.633136,718.288635 1.000004,709.000000 
	C1.000000,707.933289 1.000000,706.866638 1.000000,705.399963 
M1712.820557,921.500000 
	C1712.820557,935.574829 1712.820557,949.649719 1712.820557,963.724243 
	C1721.843750,963.724243 1730.098267,963.724243 1738.841919,963.724243 
	C1738.841919,961.661438 1738.841797,959.871399 1738.841797,958.081421 
	C1738.842041,934.425842 1738.808472,910.770081 1738.902100,887.114868 
	C1738.910156,885.061890 1739.247559,882.689575 1740.304321,881.016663 
	C1744.947876,873.664917 1755.158203,870.305298 1764.199219,872.804077 
	C1772.259766,875.031738 1776.594604,881.113342 1777.029053,890.876831 
	C1777.125244,893.038940 1777.108032,895.207031 1777.108643,897.372375 
	C1777.114014,917.696228 1777.112061,938.020020 1777.112061,958.343872 
	C1777.112061,960.111450 1777.112061,961.878967 1777.112061,963.607422 
	C1786.161255,963.607422 1794.545410,963.607422 1802.972534,963.607422 
	C1802.972534,937.061646 1803.397217,910.903137 1802.827515,884.766357 
	C1802.427979,866.431458 1790.255005,853.652832 1772.246582,850.772583 
	C1757.420288,848.401367 1744.225830,852.033691 1732.740601,861.613464 
	C1712.343384,846.023254 1693.560181,845.909119 1671.253052,861.309326 
	C1670.015259,859.136169 1668.920654,856.890808 1667.509521,854.866028 
	C1666.739502,853.760803 1665.470947,852.309631 1664.362549,852.251648 
	C1659.111450,851.977173 1653.838013,852.129150 1648.416748,852.129150 
	C1648.416748,889.689819 1648.416748,926.588501 1648.416748,963.670532 
	C1657.064209,963.670532 1665.443481,963.670532 1674.144531,963.670532 
	C1674.144531,961.528931 1674.144409,959.718933 1674.144409,957.908997 
	C1674.144409,935.919250 1674.669312,913.911072 1673.894165,891.948669 
	C1673.570190,882.768738 1677.810669,878.055420 1684.818604,874.372803 
	C1698.571045,867.145996 1712.626465,875.511047 1712.796875,891.014038 
	C1712.905029,900.841553 1712.819214,910.671265 1712.820557,921.500000 
M221.166458,949.751648 
	C223.452118,941.415894 225.636826,933.049866 228.123383,924.774475 
	C228.535065,923.404419 230.221680,921.485413 231.395096,921.430054 
	C238.169388,921.110291 244.966507,921.274109 252.610107,921.274109 
	C248.571838,936.481445 244.715317,951.004456 240.774414,965.845215 
	C247.711105,965.845215 254.164581,965.845215 260.853119,965.845215 
	C261.302399,964.398865 261.776428,962.998718 262.172791,961.576965 
	C265.475922,949.728149 268.899841,937.910156 271.978088,926.002991 
	C272.939667,922.283447 274.569580,920.899353 278.465179,921.174561 
	C283.699738,921.544434 288.980133,921.266357 294.697601,921.266357 
	C294.697601,915.752258 294.535217,910.945801 294.753998,906.156799 
	C294.902710,902.902039 293.424683,902.182922 290.568939,902.305298 
	C286.781158,902.467529 282.981140,902.345215 278.659241,902.345215 
	C279.016144,900.314941 279.171509,898.879395 279.527679,897.495483 
	C281.640564,889.285217 283.946594,881.121094 285.866364,872.866638 
	C286.563080,869.870972 287.763062,868.786133 290.879761,868.912720 
	C296.979309,869.160400 303.096039,868.985413 309.302704,868.985413 
	C309.302704,862.377686 309.302704,856.339722 309.302704,849.996155 
	C303.429749,849.996155 297.958984,849.996155 292.059204,849.996155 
	C295.708679,836.184326 299.252960,822.770630 302.939453,808.818726 
	C299.399292,808.818726 296.426941,808.818665 293.454590,808.818665 
	C282.777496,808.818604 282.811127,808.827576 280.023529,819.342163 
	C277.313782,829.562988 274.525299,839.762939 271.807861,849.837036 
	C263.590210,849.837036 255.967941,849.837036 247.965530,849.837036 
	C251.550629,836.179565 255.062668,822.800354 258.732849,808.818726 
	C253.456680,808.818726 249.103577,809.209778 244.852814,808.717285 
	C239.817993,808.133911 238.044037,810.227600 236.937714,814.893250 
	C234.152573,826.638611 230.785309,838.245911 227.552383,850.277100 
	C220.246552,850.277100 213.334183,850.277100 206.407837,850.277100 
	C206.407837,856.706116 206.407837,862.621521 206.407837,869.045532 
	C211.759048,869.045532 216.827637,869.045532 222.509140,869.045532 
	C219.579086,879.921021 216.903473,890.190063 213.920105,900.369019 
	C213.641586,901.319275 211.437042,902.199707 210.091415,902.255249 
	C204.840286,902.471985 199.574936,902.343750 194.407990,902.343750 
	C194.407990,909.071167 194.407990,914.994324 194.407990,921.522217 
	C199.119843,921.522217 203.494034,921.522217 208.389343,921.522217 
	C204.357910,936.627991 200.515945,951.023804 196.572571,965.799561 
	C203.560547,965.799561 209.994171,965.799561 216.790695,965.799561 
	C218.189621,960.737793 219.597412,955.643982 221.166458,949.751648 
M329.428070,894.088318 
	C337.786896,916.698792 346.164062,939.302551 354.478271,961.929382 
	C355.380066,964.383484 356.020294,966.565552 359.491943,966.135315 
	C362.650177,965.743958 365.572083,966.644897 367.415253,962.293640 
	C375.651550,942.849915 384.389069,923.618408 392.958282,904.315918 
	C393.795288,902.430481 394.719543,900.583862 396.048889,897.779053 
	C397.347778,900.584229 398.188354,902.332458 398.973267,904.105286 
	C407.456390,923.264343 416.130951,942.342957 424.260529,961.651001 
	C426.186096,966.224365 429.133942,965.883362 432.794800,966.163147 
	C436.793152,966.468750 436.929443,963.510498 437.786163,961.196899 
	C450.660675,926.429077 463.483795,891.642273 476.305359,856.854919 
	C476.834595,855.419006 477.229675,853.933594 477.800476,852.109314 
	C471.459229,852.109314 465.754822,852.569092 460.159576,851.984375 
	C454.142456,851.355591 451.643066,853.530090 449.707733,859.294434 
	C443.109436,878.947632 435.761475,898.349182 428.321259,918.891296 
	C427.182983,916.390076 426.411621,914.808777 425.733826,913.188354 
	C417.841522,894.320374 409.866333,875.485962 402.168274,856.538940 
	C400.733887,853.008484 398.854034,852.000244 395.168915,851.951355 
	C391.573212,851.903564 390.308197,853.462708 389.134033,856.397339 
	C381.537109,875.385132 373.796051,894.315186 366.088989,913.258789 
	C365.486786,914.738953 364.783447,916.177917 363.745789,918.483337 
	C362.898712,916.101868 362.348816,914.623047 361.844788,913.128723 
	C355.469025,894.227112 349.154510,875.304382 342.635162,856.452515 
	C342.054352,854.773010 340.210266,852.373596 338.856354,852.308228 
	C330.774078,851.918030 322.663391,852.115051 313.959320,852.115051 
	C319.169006,866.275330 324.152008,879.819519 329.428070,894.088318 
M1215.949707,844.500000 
	C1215.949707,884.244324 1215.949707,923.988647 1215.949707,963.741577 
	C1224.937744,963.741577 1233.199463,963.741577 1241.945435,963.741577 
	C1241.945435,952.535034 1241.928711,941.582153 1241.965210,930.629456 
	C1241.970093,929.160583 1241.699951,927.230347 1242.487061,926.303223 
	C1246.186768,921.945251 1250.210938,917.862793 1254.385742,913.397034 
	C1264.783447,929.472351 1274.692017,944.865662 1284.720825,960.180054 
	C1285.713989,961.696716 1287.406372,963.772339 1288.835571,963.821899 
	C1298.248047,964.148376 1307.677368,963.990479 1317.967773,963.990479 
	C1302.625366,940.438354 1287.758911,917.616882 1272.768799,894.605530 
	C1285.166382,880.599915 1297.437378,866.737244 1310.383545,852.111877 
	C1300.619141,852.111877 1292.142212,852.284058 1283.678223,852.026794 
	C1280.304565,851.924255 1278.139526,853.109741 1276.044922,855.587646 
	C1268.624390,864.365845 1261.037109,873.003174 1253.493530,881.676941 
	C1249.955811,885.744690 1246.373291,889.773560 1241.767334,895.005798 
	C1241.767334,863.928345 1241.767334,834.439880 1241.767334,804.331360 
	C1232.724731,806.501038 1224.401611,808.498169 1215.949707,810.526123 
	C1215.949707,821.861084 1215.949707,832.680542 1215.949707,844.500000 
M1423.736572,868.801147 
	C1409.283325,851.751099 1390.363037,847.266785 1369.522827,851.370911 
	C1349.366699,855.340332 1336.021606,868.258911 1328.990234,887.556519 
	C1325.370117,897.491577 1325.351685,907.834290 1326.092163,918.172424 
	C1327.784546,941.799622 1342.697266,959.442505 1365.433716,964.534912 
	C1376.967041,967.118103 1388.692505,966.922791 1400.122925,964.172729 
	C1406.491577,962.640442 1412.544067,959.668823 1418.578491,956.985352 
	C1419.676636,956.497009 1420.946899,953.838562 1420.527100,952.909790 
	C1417.830811,946.943115 1414.685547,941.179199 1411.748779,935.467285 
	C1397.376587,945.593140 1382.378174,947.302856 1367.001709,940.166870 
	C1357.453125,935.735474 1353.374756,927.046143 1352.918091,916.036499 
	C1355.024902,916.036499 1356.817017,916.036499 1358.609131,916.036499 
	C1381.773071,916.036438 1404.937256,915.981567 1428.100586,916.099792 
	C1431.296997,916.116089 1432.625854,915.382324 1433.285767,911.937256 
	C1436.264771,896.385742 1433.721436,882.169983 1423.736572,868.801147 
M526.723877,852.076721 
	C506.620056,858.665344 493.384674,872.089172 488.653442,892.683105 
	C486.750397,900.966370 486.695190,909.904541 487.190857,918.464111 
	C488.552521,941.978149 503.912323,959.705139 526.644531,964.610107 
	C538.182739,967.099670 549.912903,966.942200 561.332092,964.104553 
	C567.690979,962.524353 573.718933,959.517090 579.758728,956.842773 
	C580.760315,956.399292 581.923523,953.964294 581.538818,953.124023 
	C578.808350,947.159485 575.694275,941.370667 572.721252,935.562622 
	C557.817627,945.525696 542.557068,947.612976 526.967285,939.634827 
	C518.014404,935.053223 514.191833,926.607849 513.913513,916.036499 
	C516.081116,916.036499 517.878418,916.036499 519.675720,916.036499 
	C542.837402,916.036438 565.999146,916.034424 589.160828,916.039795 
	C591.322021,916.040344 593.345947,916.383667 593.981140,913.223145 
	C597.231323,897.052246 595.324951,881.838196 584.562927,868.902161 
	C569.464478,850.753784 549.605164,847.306641 526.723877,852.076721 
M854.009766,857.428955 
	C832.964600,846.518372 811.801331,848.527466 790.063049,856.279297 
	C792.055786,863.394226 793.861023,869.839478 795.725464,876.496155 
	C797.995850,875.749756 799.539734,875.189758 801.113647,874.733276 
	C811.849609,871.619202 822.696594,870.419861 833.511963,874.028137 
	C841.571899,876.717224 845.973389,884.140442 844.511414,889.792419 
	C834.191406,890.552917 824.180237,890.524231 814.450073,892.163452 
	C792.570251,895.849548 780.206238,909.140930 778.542725,929.433533 
	C777.057495,947.551392 787.785217,961.767395 805.672607,964.990479 
	C821.412476,967.826599 835.978821,965.747803 847.867554,953.622314 
	C851.942871,960.924133 856.779907,966.710205 866.135620,966.062439 
	C872.125488,965.647766 877.218506,964.099182 879.860779,958.142151 
	C874.599792,951.819031 872.602051,947.438171 872.009827,940.163452 
	C871.604980,935.191650 871.414551,930.199402 871.241028,925.212402 
	C870.790161,912.249207 871.005005,899.227722 869.806519,886.336243 
	C868.755432,875.030884 864.932556,864.526245 854.009766,857.428955 
M1539.876831,859.838928 
	C1541.384277,865.255432 1542.891846,870.671875 1544.485474,876.397827 
	C1546.588013,875.750732 1548.295654,875.196289 1550.019897,874.699219 
	C1560.597778,871.649841 1571.278442,870.466553 1581.959106,873.914429 
	C1590.014160,876.514648 1594.199707,883.081665 1593.263916,891.230713 
	C1591.485107,891.000916 1589.713867,890.676453 1587.928833,890.556458 
	C1571.644287,889.462585 1555.834595,891.093811 1542.199585,900.985779 
	C1528.481567,910.937866 1524.971802,925.128357 1528.345581,940.958313 
	C1531.517456,955.839539 1542.176270,963.151367 1556.593994,965.332092 
	C1571.680176,967.613831 1585.570801,965.188782 1596.665894,953.525513 
	C1600.557495,960.569336 1605.003662,966.337158 1613.938232,966.076782 
	C1620.273438,965.892151 1625.776367,964.482544 1628.668091,958.118591 
	C1623.355713,952.081665 1621.697388,948.498291 1620.878540,940.152588 
	C1620.408081,935.357544 1620.246460,930.526611 1620.091675,925.707153 
	C1619.686035,913.066589 1620.006470,900.362793 1618.826660,887.797791 
	C1617.558105,874.287903 1613.216919,861.688232 1599.433228,855.684937 
	C1580.289551,847.347229 1560.860840,848.374023 1541.589722,855.554871 
	C1540.637817,855.909546 1540.287842,857.879272 1539.876831,859.838928 
M2052.294434,863.845520 
	C2053.676025,860.169983 2055.057617,856.494446 2056.706055,852.109314 
	C2048.688232,852.109314 2041.563232,852.299988 2034.455933,852.028748 
	C2030.906494,851.893250 2029.204224,852.979431 2027.991455,856.446411 
	C2020.141968,878.885864 2012.048462,901.239929 2004.019287,923.616272 
	C2003.491821,925.086182 2002.834351,926.509460 2001.897949,928.776367 
	C2000.743530,926.089050 1999.929199,924.324036 1999.218262,922.518250 
	C1990.447998,900.240967 1981.725220,877.944824 1972.858032,855.706177 
	C1972.292847,854.288635 1970.674561,852.323608 1969.483521,852.278870 
	C1961.415649,851.975525 1953.330811,852.120422 1944.669067,852.120422 
	C1945.479370,854.372253 1945.981079,855.913330 1946.582153,857.414490 
	C1957.213013,883.963440 1968.017334,910.444641 1978.404785,937.088379 
	C1981.832397,945.880310 1984.996582,954.929077 1986.830322,964.148987 
	C1989.083496,975.478027 1985.150269,980.555847 1973.887695,983.041138 
	C1968.610596,984.205627 1963.170410,984.631958 1957.795898,985.394043 
	C1957.795898,992.912781 1957.795898,1000.193787 1957.795898,1007.609924 
	C1958.886353,1007.735901 1959.701172,1007.960876 1960.493042,1007.898193 
	C1963.476807,1007.661743 1966.486694,1007.523254 1969.426636,1007.005615 
	C1988.433838,1003.658752 2002.895142,995.335144 2009.978882,975.583801 
	C2023.334595,938.344666 2037.949829,901.557312 2052.294434,863.845520 
M989.082153,954.464966 
	C989.082153,933.474487 989.638000,912.462280 988.816162,891.504028 
	C988.474365,882.788757 992.492065,878.622559 999.093506,875.333069 
	C1001.601318,874.083374 1004.303955,872.898926 1007.038757,872.485535 
	C1020.409058,870.464661 1032.359741,874.629700 1034.135254,891.260193 
	C1034.505615,894.728821 1034.838745,898.221558 1034.853882,901.704590 
	C1034.927612,918.696594 1034.888062,935.689087 1034.888428,952.681396 
	C1034.888428,956.299438 1034.888428,959.917480 1034.888428,963.665161 
	C1043.790894,963.665161 1052.169067,963.665161 1060.905640,963.665161 
	C1060.905640,961.858948 1060.908936,960.388306 1060.905151,958.917603 
	C1060.845947,935.929443 1061.833740,912.878174 1060.454102,889.969482 
	C1058.821289,862.858459 1040.981079,848.450134 1013.860474,850.161499 
	C1003.437866,850.819153 994.091736,854.292847 986.646301,862.430176 
	C985.295105,859.593445 984.350891,857.274109 983.104675,855.130310 
	C982.434509,853.977478 981.286499,852.321106 980.285461,852.271423 
	C974.698242,851.993896 969.090149,852.138000 963.340881,852.138000 
	C963.340881,889.681396 963.340881,926.582947 963.340881,963.684265 
	C971.976440,963.684265 980.355896,963.684265 989.082214,963.684265 
	C989.082214,960.730286 989.082214,958.091858 989.082153,954.464966 
M1487.622803,924.500000 
	C1487.622803,907.746338 1487.622803,890.992737 1487.622803,873.719727 
	C1495.382812,873.719727 1502.465698,873.719727 1509.754639,873.719727 
	C1509.754639,866.308228 1509.754639,859.427307 1509.754639,851.964355 
	C1502.060425,851.964355 1494.662598,851.964355 1487.133179,851.964355 
	C1486.781494,843.708923 1488.668579,836.878235 1494.468140,831.512390 
	C1501.673462,824.846069 1509.709351,828.148560 1517.877686,830.007935 
	C1519.336182,826.334351 1520.751221,822.820007 1522.126343,819.290100 
	C1523.202759,816.527222 1524.229736,813.745239 1525.262085,811.015381 
	C1515.284424,805.916504 1498.969238,804.765503 1488.591797,808.845703 
	C1469.157715,816.486511 1463.102783,833.063660 1461.115356,852.394043 
	C1455.490845,852.394043 1450.419434,852.394043 1445.435059,852.394043 
	C1445.435059,859.719910 1445.435059,866.476501 1445.435059,873.840454 
	C1450.791992,873.840454 1455.856079,873.840454 1461.441162,873.840454 
	C1461.441162,904.178223 1461.441162,933.905334 1461.441162,963.690186 
	C1470.385376,963.690186 1478.782959,963.690186 1487.069702,963.690186 
	C1487.301514,963.074036 1487.514648,962.770569 1487.515747,962.466370 
	C1487.563232,950.144287 1487.591553,937.822144 1487.622803,924.500000 
M680.768555,939.884583 
	C679.238342,940.396057 677.699829,940.883972 676.179138,941.422546 
	C661.228882,946.716797 645.623901,946.185608 646.666199,922.455933 
	C646.680786,922.123596 646.661865,921.789795 646.661804,921.456726 
	C646.659424,907.966370 646.657410,894.475952 646.655457,880.985596 
	C646.655151,878.543152 646.655396,876.100647 646.655396,872.995605 
	C657.141541,872.995605 667.016968,872.995605 676.795166,872.995605 
	C676.795166,865.732971 676.795166,859.146301 676.795166,851.906616 
	C666.626526,851.906616 656.753784,851.906616 646.509766,851.906616 
	C646.509766,840.990295 646.509766,830.729248 646.509766,819.802734 
	C638.666748,822.677979 631.429871,825.469788 624.088562,827.952698 
	C621.234924,828.917847 620.231201,830.416321 620.331055,833.390564 
	C620.535461,839.476440 620.392395,845.574036 620.392395,852.270020 
	C615.820557,852.270020 611.928955,852.270020 608.034424,852.270020 
	C608.034424,859.477478 608.034424,866.063904 608.034424,873.260925 
	C612.221497,873.260925 616.116150,873.260925 620.391968,873.260925 
	C620.391968,876.683655 620.368225,879.498230 620.395874,882.312195 
	C620.574341,900.457336 620.312073,918.621704 621.088867,936.741455 
	C621.746155,952.075134 631.296936,963.269958 646.413269,965.037292 
	C656.794373,966.251160 667.544067,964.504333 678.102051,963.718323 
	C679.163696,963.639282 680.798401,961.083679 680.867981,959.615845 
	C681.167236,953.301758 680.981323,946.964661 680.768555,939.884583 
M1129.641235,953.711731 
	C1124.825195,950.992859 1121.988525,946.749329 1121.041992,941.452087 
	C1120.286255,937.222534 1119.855103,932.876770 1119.845581,928.581299 
	C1119.757202,889.111145 1119.792358,849.640747 1119.791504,810.170410 
	C1119.791504,808.384644 1119.791504,806.598877 1119.791504,804.307251 
	C1112.423340,806.021606 1105.693970,807.828247 1098.863525,809.085571 
	C1094.831787,809.827759 1093.628418,811.481262 1093.647339,815.670105 
	C1093.833862,856.971619 1093.753784,898.274170 1093.775879,939.576477 
	C1093.777588,942.737976 1093.777466,945.922546 1094.132202,949.056335 
	C1095.157349,958.111145 1099.829224,964.085327 1106.894409,965.705566 
	C1115.502319,967.679565 1125.593750,964.178040 1130.036499,957.475891 
	C1130.596436,956.631104 1130.207764,955.157654 1129.641235,953.711731 
M1930.321289,963.022644 
	C1932.981934,960.494263 1935.642578,957.965942 1938.778687,954.985718 
	C1930.905762,951.690369 1927.825684,946.209412 1926.831299,939.405518 
	C1926.304443,935.799988 1925.991943,932.128845 1925.986450,928.486694 
	C1925.927490,889.330383 1925.949219,850.173950 1925.948730,811.017517 
	C1925.948730,809.041870 1925.948730,807.066284 1925.948730,804.343872 
	C1917.039307,806.442627 1908.702393,808.406555 1900.179688,810.414246 
	C1900.088745,812.157227 1899.945679,813.623779 1899.945312,815.090271 
	C1899.935425,857.245911 1899.936157,899.401489 1899.951416,941.557129 
	C1899.952148,943.721069 1899.926392,945.906250 1900.197021,948.045532 
	C1901.921753,961.682678 1909.405640,967.797852 1922.096436,965.800110 
	C1924.682129,965.393005 1927.146484,964.215393 1930.321289,963.022644 
M714.496948,852.109985 
	C710.209900,852.109985 705.922913,852.109985 701.446777,852.109985 
	C701.446777,889.660461 701.446777,926.679993 701.446777,963.754395 
	C710.065979,963.754395 718.327515,963.754395 727.086426,963.754395 
	C727.086426,961.738220 727.086426,959.947815 727.086426,958.157410 
	C727.086914,939.500427 727.045654,920.843323 727.128479,902.186707 
	C727.142395,899.044739 727.421448,895.850891 728.038879,892.773438 
	C731.485168,875.596252 746.894958,867.596863 762.427917,874.804810 
	C763.430908,875.270264 764.462463,875.674133 765.774170,876.231323 
	C769.415527,868.849121 772.918152,861.748169 776.786743,853.905334 
	C758.554077,847.563721 742.158875,848.127258 726.926270,861.993958 
	C726.926270,858.217468 726.926270,855.332092 726.926270,852.110046 
	C722.759583,852.110046 719.122437,852.110046 714.496948,852.109985 
M1154.543457,852.102478 
	C1151.450806,852.102478 1148.358154,852.102478 1145.407715,852.102478 
	C1145.407715,859.718079 1145.407715,866.598267 1145.407715,873.894531 
	C1150.079224,873.894531 1154.340088,873.894531 1159.076782,873.894531 
	C1159.076782,904.039978 1159.076782,933.753479 1159.076782,963.728455 
	C1168.117554,963.728455 1176.664062,963.728455 1185.334351,963.728455 
	C1185.334351,926.435791 1185.334351,889.426086 1185.334351,852.102539 
	C1175.144897,852.102539 1165.337280,852.102539 1154.543457,852.102478 
M892.400818,872.895325 
	C896.907410,873.359741 901.414001,873.824158 906.430176,874.341125 
	C906.430176,904.222900 906.430176,933.944153 906.430176,963.638062 
	C915.525696,963.638062 924.081726,963.638062 932.629822,963.638062 
	C932.629822,926.378479 932.629822,889.491821 932.629822,852.390869 
	C919.112854,852.390869 905.891907,852.390869 892.176575,852.390869 
	C892.176575,859.119385 892.176575,865.566956 892.400818,872.895325 
M1865.065918,960.324585 
	C1865.065918,924.401550 1865.065918,888.478577 1865.065918,852.397644 
	C1851.369507,852.397644 1838.294556,852.397644 1825.038696,852.397644 
	C1825.038696,859.551208 1825.038696,866.415649 1825.038696,873.756836 
	C1829.688110,873.756836 1833.954224,873.756836 1838.925537,873.756836 
	C1838.925537,904.075928 1838.925537,933.921265 1838.925537,964.001038 
	C1841.288086,964.001038 1842.940552,964.001221 1844.592896,964.001038 
	C1850.423828,964.000305 1856.260498,964.129822 1862.080444,963.876648 
	C1863.110107,963.831909 1864.070068,962.190918 1865.065918,960.324585 
M1175.912598,809.053284 
	C1174.920654,808.984680 1173.929077,808.860291 1172.936890,808.856140 
	C1164.127808,808.819214 1157.263428,815.551025 1157.385864,824.083923 
	C1157.510498,832.764954 1165.011963,839.565002 1173.828003,838.988281 
	C1180.663818,838.541077 1186.407104,833.170227 1187.627808,826.083252 
	C1188.848877,818.994141 1184.697021,812.565735 1175.912598,809.053284 
M1863.488770,833.905701 
	C1868.441162,826.915161 1868.435303,819.465393 1863.473389,813.877319 
	C1858.862671,808.684509 1851.355347,807.118530 1845.339966,810.328796 
	C1839.734619,813.320190 1836.794189,818.103943 1837.039185,824.517456 
	C1837.276489,830.730591 1840.462402,835.317017 1846.053345,837.745728 
	C1852.255981,840.440186 1858.058716,839.256714 1863.488770,833.905701 
M929.763184,835.350403 
	C936.672302,827.862061 936.721985,818.600830 929.885681,812.511414 
	C923.643982,806.951721 914.054993,807.584534 908.474487,813.924500 
	C903.613464,819.447021 903.504639,827.891663 908.221191,833.571045 
	C913.490295,839.916077 921.402649,840.765503 929.763184,835.350403 
z"/>
<path fill="#FFFFFF" opacity="1.000000" stroke="none" 
	d="
M1.000004,709.468628 
	C3.633136,718.288635 6.461918,727.526978 8.861215,736.875671 
	C15.054481,761.007202 21.082165,785.181458 27.128723,809.350464 
	C31.102365,825.233765 34.818817,841.183472 38.965927,857.020813 
	C44.298031,877.383667 49.842712,897.692566 55.489799,917.970703 
	C60.312641,935.288940 65.314316,952.558960 70.421295,969.795776 
	C73.394943,979.832336 76.689445,989.774963 79.918243,999.734375 
	C82.429146,1007.479431 82.486084,1007.422485 90.502182,1008.007874 
	C103.769829,1008.976685 117.032578,1010.012207 130.298798,1011.000793 
	C143.884583,1012.013245 157.469681,1013.036743 171.059418,1013.993958 
	C185.825027,1015.034180 200.595245,1016.009155 215.364120,1017.002625 
	C230.325653,1018.009033 245.287460,1019.011414 260.250122,1020.000671 
	C275.523407,1021.010681 290.797089,1022.014832 306.072052,1022.999207 
	C321.836609,1024.015137 337.602905,1025.004761 353.368469,1026.005249 
	C363.870728,1026.671509 374.372620,1027.343628 384.875427,1028.000610 
	C400.968964,1029.007324 417.062744,1030.009521 433.157196,1031.001221 
	C444.157959,1031.679199 455.160706,1032.324097 466.161224,1033.005981 
	C482.110474,1033.994385 498.057983,1035.011475 514.007263,1035.999756 
	C525.014954,1036.682007 536.024353,1037.336060 547.033020,1038.002808 
	C558.041138,1038.669434 569.049316,1039.336060 580.057434,1040.002930 
	C591.059265,1040.669312 602.060608,1041.343994 613.063049,1042.000854 
	C624.392151,1042.677002 635.723022,1043.323364 647.051758,1044.005249 
	C663.493164,1044.994751 679.933289,1046.005981 696.374023,1047.005249 
	C707.355164,1047.672729 718.335388,1048.354858 729.317993,1048.996582 
	C746.744385,1050.015015 764.173401,1050.987671 781.599304,1052.013794 
	C792.297546,1052.643677 802.990479,1053.361816 813.688416,1053.996216 
	C830.927795,1055.018433 848.169678,1055.998413 865.409790,1057.007568 
	C876.594666,1057.662231 887.778076,1058.340332 898.962524,1059.001587 
	C910.315430,1059.672729 921.668823,1060.335449 933.021912,1061.002808 
	C944.354309,1061.668823 955.686523,1062.335815 967.018860,1063.002930 
	C978.339661,1063.669189 989.660522,1064.336304 1000.981323,1065.002808 
	C1012.302063,1065.669434 1023.622070,1066.347290 1034.943604,1066.999756 
	C1046.757446,1067.680664 1058.573364,1068.324219 1070.386963,1069.008423 
	C1081.580688,1069.656860 1092.772461,1070.339600 1103.965210,1071.001587 
	C1115.302002,1071.672363 1126.638672,1072.343750 1137.976196,1073.000732 
	C1149.644775,1073.676758 1161.314575,1074.328735 1172.983154,1075.004395 
	C1184.338745,1075.661987 1195.692993,1076.343018 1207.048584,1077.001099 
	C1218.695557,1077.676270 1230.343750,1078.329224 1241.990723,1079.004150 
	C1253.348877,1079.662354 1264.705933,1080.343384 1276.064087,1081.001099 
	C1287.731689,1081.676636 1299.400269,1082.336182 1311.068359,1083.002686 
	C1322.739136,1083.669312 1334.410400,1084.328857 1346.080688,1085.004517 
	C1357.436523,1085.662109 1368.791016,1086.343994 1380.146973,1087.001343 
	C1391.822388,1087.677246 1403.498535,1088.336060 1415.174438,1089.003052 
	C1426.838013,1089.669067 1438.501709,1090.336304 1450.165283,1091.002808 
	C1461.833740,1091.669556 1473.502319,1092.336060 1485.170776,1093.002563 
	C1496.845337,1093.669312 1508.520386,1094.325317 1520.194214,1095.005615 
	C1531.386963,1095.657959 1542.577393,1096.350220 1553.770508,1096.998291 
	C1565.597412,1097.683105 1577.426514,1098.329712 1589.253906,1099.005737 
	C1600.749146,1099.662720 1612.243042,1100.343140 1623.738281,1101.000244 
	C1635.565796,1101.676270 1647.394409,1102.329834 1659.221924,1103.005737 
	C1670.727661,1103.663086 1682.232300,1104.343140 1693.738037,1105.000244 
	C1705.576050,1105.676270 1717.415405,1106.329590 1729.253418,1107.005737 
	C1740.759155,1107.662842 1752.263672,1108.342896 1763.769409,1109.000244 
	C1775.596924,1109.676147 1787.425171,1110.337158 1799.253174,1111.003662 
	C1811.083496,1111.670166 1822.914062,1112.328735 1834.743896,1113.003174 
	C1852.184204,1113.997437 1869.623901,1115.003662 1887.063965,1116.002563 
	C1898.735718,1116.671265 1910.408081,1117.332764 1922.079590,1118.004272 
	C1933.574585,1118.665649 1945.068115,1119.353516 1956.563965,1119.996826 
	C1968.892944,1120.686890 1981.225220,1121.318848 1993.553955,1122.012451 
	C2004.897461,1122.650391 2016.237427,1123.347412 2027.580078,1123.999023 
	C2045.178955,1125.009888 2062.779297,1125.997070 2080.377930,1127.008423 
	C2091.710449,1127.659668 2103.041016,1128.335449 2114.372559,1129.001099 
	C2121.437744,1129.416138 2128.502686,1129.832642 2135.783936,1130.624268 
	C1424.454834,1131.000000 712.909729,1131.000000 1.000000,1131.000000 
	C1.000000,990.645996 1.000000,850.291626 1.000004,709.468628 
z"/>
<path fill="#65BC50" opacity="1.000000" stroke="none" 
	d="
M1681.625000,1.000007 
	C1693.660278,6.640262 1705.353638,12.213697 1716.971191,17.940454 
	C1727.632568,23.195784 1738.183716,28.673977 1748.833374,33.953320 
	C1780.274414,49.539364 1811.767944,65.019676 1843.191040,80.641571 
	C1938.732910,128.139923 2034.267578,175.653275 2129.766113,223.238678 
	C2149.722168,233.182526 2169.548828,243.388641 2189.363525,253.612534 
	C2200.000000,259.100616 2210.484131,264.883698 2222.287109,271.202942 
	C2220.048340,271.608795 2218.965576,271.976349 2217.882568,271.976868 
	C2161.383789,272.003784 2104.883545,272.164124 2048.387695,271.753143 
	C2042.509399,271.710388 2036.470947,268.696259 2030.824341,266.309692 
	C2012.039917,258.370392 1993.359253,250.180756 1974.718262,241.908325 
	C1960.065186,235.405655 1945.551025,228.591156 1930.936768,221.999954 
	C1907.914673,211.616791 1884.871216,201.281250 1861.817017,190.969604 
	C1840.058228,181.237442 1818.293213,171.518555 1796.495361,161.874329 
	C1774.569580,152.173447 1752.635254,142.490112 1730.637085,132.955109 
	C1715.782959,126.516724 1700.763794,120.459023 1685.921265,113.994781 
	C1681.244629,111.958000 1677.261963,113.703468 1673.303223,115.390343 
	C1651.596436,124.639908 1629.904175,133.927917 1608.314453,143.446716 
	C1586.462036,153.081314 1564.742554,163.016876 1542.950439,172.788757 
	C1526.710693,180.070969 1510.443604,187.292297 1494.197021,194.559280 
	C1474.851318,203.212402 1455.519409,211.896149 1436.172607,220.546921 
	C1412.061523,231.327988 1387.993652,242.207825 1363.805542,252.813690 
	C1349.578369,259.051941 1335.172363,264.884796 1320.797485,270.779785 
	C1318.911377,271.553284 1316.732178,271.948364 1314.688110,271.950562 
	C1257.689209,272.012085 1200.690308,272.000488 1143.691406,271.996399 
	C1143.040527,271.996368 1142.389526,271.937134 1141.144165,270.923553 
	C1143.903809,269.244293 1146.559082,267.356567 1149.438232,265.915924 
	C1254.733276,213.225998 1360.081055,160.641251 1465.349487,107.898369 
	C1524.343628,78.340492 1583.183350,48.474518 1642.159058,18.879755 
	C1654.191895,12.841528 1666.521729,7.395159 1678.857300,1.337996 
	C1679.750000,1.000000 1680.500000,1.000000 1681.625000,1.000007 
z"/>
<path fill="#FFFFFF" opacity="1.000000" stroke="none" 
	d="
M2137.468750,1131.000000 
	C2140.333740,1115.177856 2143.682129,1099.358887 2146.997314,1083.532837 
	C2150.056641,1068.928223 2153.043701,1054.308350 2156.130371,1039.709473 
	C2159.378662,1024.347168 2162.691406,1008.998413 2166.004639,993.649963 
	C2169.210449,978.800537 2172.509277,963.971008 2175.662354,949.110413 
	C2178.186523,937.212219 2180.509521,925.271423 2183.001221,913.366150 
	C2186.625000,896.054749 2190.328369,878.760071 2193.982178,861.454956 
	C2197.990723,842.470886 2201.995361,823.486023 2205.977051,804.496338 
	C2210.003174,785.294739 2213.994629,766.085876 2218.008789,746.881714 
	C2220.761719,733.712769 2223.527100,720.546509 2226.643555,707.189575 
	C2227.000000,848.212952 2227.000000,989.425842 2227.000000,1131.000000 
	C2197.313477,1131.000000 2167.625488,1131.000000 2137.468750,1131.000000 
z"/>
<path fill="#65BC50" opacity="1.000000" stroke="none" 
	d="
M1251.955811,736.995789 
	C1248.856567,735.734375 1245.207764,734.666504 1242.844238,732.309692 
	C1230.052979,719.555115 1217.553711,706.506653 1205.013184,693.502441 
	C1201.372559,689.727295 1197.964966,685.728760 1194.383301,681.895447 
	C1188.755005,675.871765 1183.222168,669.747925 1177.373779,663.943604 
	C1168.093506,654.733276 1158.601685,645.735779 1149.171265,636.677368 
	C1139.139893,627.041748 1128.869995,617.644531 1119.071045,607.779053 
	C1100.929688,589.514587 1083.228516,570.811157 1065.004883,552.630676 
	C1054.071411,541.723145 1042.495605,531.459473 1030.263916,520.023254 
	C1030.263916,575.270203 1030.263916,629.386047 1030.263916,683.750244 
	C992.290894,683.750244 955.021057,683.750244 917.374756,683.750244 
	C917.374756,536.646851 917.374756,389.467621 917.374756,241.512939 
	C920.947998,244.455292 924.321716,246.831665 927.224670,249.686707 
	C952.467102,274.512543 977.618896,299.430481 1002.809692,324.308777 
	C1035.233276,356.330170 1067.717651,388.290131 1100.062744,420.390472 
	C1108.042114,428.309357 1115.452271,436.800018 1123.377808,444.775635 
	C1127.978149,449.405029 1133.083618,453.532379 1139.199219,458.989899 
	C1139.199219,404.067902 1139.199219,350.335785 1139.199219,296.303925 
	C1177.074951,296.303925 1213.791504,296.303925 1251.999512,296.303925 
	C1251.999512,443.183380 1251.999512,589.888855 1251.955811,736.995789 
z"/>
<path fill="#65BC50" opacity="1.000000" stroke="none" 
	d="
M1916.000977,523.853760 
	C1916.334595,528.250244 1916.927368,532.179504 1916.954224,536.112549 
	C1917.063843,552.111511 1917.325928,568.119995 1916.913818,584.109070 
	C1916.444824,602.306091 1913.196289,620.072327 1904.357422,636.211121 
	C1894.313477,654.550476 1879.238159,667.455750 1859.556274,674.737183 
	C1845.422852,679.965881 1830.852539,682.909973 1815.706177,683.035217 
	C1785.635376,683.283813 1755.565918,684.028809 1725.496338,684.004517 
	C1689.088257,683.975037 1652.681396,683.227295 1616.272827,683.082458 
	C1605.403809,683.039185 1594.530640,683.976257 1583.316528,684.479614 
	C1583.316528,646.614929 1583.316528,609.562988 1583.316528,572.142578 
	C1657.055420,572.142578 1730.656372,572.142578 1804.628296,572.142578 
	C1804.628296,563.397461 1804.628296,555.008606 1804.628296,545.117371 
	C1792.476807,545.078308 1780.288330,544.908569 1768.102661,545.027466 
	C1743.364258,545.268921 1718.627808,545.878540 1693.889771,545.925659 
	C1677.221191,545.957458 1660.707031,543.691223 1644.877930,538.473389 
	C1621.955078,530.917236 1603.719482,517.148682 1594.056763,494.434235 
	C1589.912231,484.691742 1587.088013,474.178711 1585.173706,463.738922 
	C1580.931519,440.605743 1582.832153,417.110443 1583.261841,393.807617 
	C1583.608643,375.003448 1588.215210,356.767029 1597.887939,340.236176 
	C1605.162720,327.803711 1615.165405,318.120636 1627.718140,311.029236 
	C1639.567383,304.335297 1652.444214,300.563843 1665.676880,298.127136 
	C1672.904785,296.796173 1680.353149,296.099701 1687.703857,296.085693 
	C1762.702148,295.942993 1837.700684,295.999023 1912.699219,296.006775 
	C1913.666992,296.006866 1914.634766,296.101929 1916.344360,296.191589 
	C1914.977783,298.318787 1914.126709,300.245117 1912.758789,301.678375 
	C1901.314453,313.669373 1889.918335,325.712158 1878.222290,337.455170 
	C1867.936157,347.782745 1857.268311,357.729797 1846.794556,367.871216 
	C1834.406616,379.866211 1822.215210,392.073456 1809.534058,403.749237 
	C1806.917236,406.158569 1802.560791,407.665985 1798.934448,407.811951 
	C1786.454468,408.314423 1773.941040,408.169983 1761.443726,408.008423 
	C1746.199463,407.811401 1730.959961,407.205231 1715.715698,407.067566 
	C1709.320923,407.009766 1702.919434,407.700043 1696.071167,408.074860 
	C1695.595459,416.701874 1695.135986,425.032898 1694.657837,433.704346 
	C1711.288940,434.867950 1727.211060,436.290192 1743.178345,433.954498 
	C1743.666260,433.883179 1744.177002,433.984100 1744.676514,433.973358 
	C1759.912842,433.646027 1775.176636,432.582123 1790.379150,433.152405 
	C1814.369019,434.052338 1838.540283,434.719482 1861.281128,444.001556 
	C1870.308350,447.686188 1878.758911,452.250488 1886.383545,458.626678 
	C1894.258423,465.212250 1900.701050,473.030334 1904.831177,481.964600 
	C1909.454224,491.964661 1911.847168,503.019196 1914.915527,513.699585 
	C1915.800171,516.778870 1915.666748,520.150574 1916.000977,523.853760 
z"/>
<path fill="#65BC50" opacity="1.000000" stroke="none" 
	d="
M1278.000000,677.895935 
	C1278.000000,550.467896 1278.000000,423.525940 1278.000000,296.286072 
	C1370.734985,296.286072 1463.108398,296.286072 1556.290283,296.286072 
	C1556.290283,333.114685 1556.290283,369.782501 1556.290283,407.886993 
	C1538.317993,408.269135 1519.962280,407.965271 1501.618164,408.002716 
	C1483.122070,408.040497 1464.625610,408.003235 1446.129395,408.001434 
	C1427.651733,407.999634 1409.174194,408.001038 1390.348877,408.001038 
	C1390.348877,416.325531 1390.348877,424.389496 1390.348877,433.075745 
	C1396.584351,433.713043 1402.878906,434.873444 1409.180542,434.912933 
	C1440.006592,435.106110 1470.834839,435.109985 1501.661255,434.955902 
	C1517.901855,434.874725 1534.140137,434.330261 1550.379517,434.003937 
	C1552.025024,433.970856 1553.671753,433.999481 1556.208008,433.999481 
	C1556.208008,470.935059 1556.208008,507.599121 1556.208008,545.376282 
	C1501.341553,545.376282 1445.905640,545.376282 1390.239380,545.376282 
	C1390.239380,554.419800 1390.239380,562.352539 1390.239380,571.026001 
	C1397.286743,571.681030 1404.379150,572.858765 1411.479858,572.910034 
	C1441.139160,573.124329 1470.801270,573.113586 1500.461182,572.956299 
	C1517.201782,572.867493 1533.939819,572.330750 1550.679199,572.004211 
	C1552.297241,571.972595 1553.916382,572.000000 1556.338745,572.000000 
	C1556.338745,609.135071 1556.338745,645.776245 1556.338745,683.236694 
	C1463.955322,683.236694 1371.294312,683.236694 1278.000000,683.236694 
	C1278.000000,681.914734 1278.000000,680.148315 1278.000000,677.895935 
z"/>
<path fill="#65BC50" opacity="1.000000" stroke="none" 
	d="
M2139.000000,673.968140 
	C2139.000000,677.434021 2139.000000,680.406006 2139.000000,683.688477 
	C2101.607910,683.688477 2064.557373,683.688477 2027.147217,683.688477 
	C2027.147217,591.949524 2027.147217,500.352936 2027.147217,408.234558 
	C1999.072876,408.234558 1971.348145,408.234558 1943.577393,408.234558 
	C1943.577393,370.702362 1943.577393,333.696411 1943.577393,296.339172 
	C2036.642334,296.339172 2129.022949,296.339172 2221.702148,296.339172 
	C2221.702148,333.421234 2221.702148,370.472595 2221.702148,407.883789 
	C2194.262451,407.883789 2166.993164,407.883789 2139.000000,407.883789 
	C2139.000000,496.652161 2139.000000,585.063171 2139.000000,673.968140 
z"/>
<path fill="#FCFDFC" opacity="1.000000" stroke="none" 
	d="
M1712.820557,921.000000 
	C1712.819214,910.671265 1712.905029,900.841553 1712.796875,891.014038 
	C1712.626465,875.511047 1698.571045,867.145996 1684.818604,874.372803 
	C1677.810669,878.055420 1673.570190,882.768738 1673.894165,891.948669 
	C1674.669312,913.911072 1674.144409,935.919250 1674.144409,957.908997 
	C1674.144409,959.718933 1674.144531,961.528931 1674.144531,963.670532 
	C1665.443481,963.670532 1657.064209,963.670532 1648.416748,963.670532 
	C1648.416748,926.588501 1648.416748,889.689819 1648.416748,852.129150 
	C1653.838013,852.129150 1659.111450,851.977173 1664.362549,852.251648 
	C1665.470947,852.309631 1666.739502,853.760803 1667.509521,854.866028 
	C1668.920654,856.890808 1670.015259,859.136169 1671.253052,861.309326 
	C1693.560181,845.909119 1712.343384,846.023254 1732.740601,861.613464 
	C1744.225830,852.033691 1757.420288,848.401367 1772.246582,850.772583 
	C1790.255005,853.652832 1802.427979,866.431458 1802.827515,884.766357 
	C1803.397217,910.903137 1802.972534,937.061646 1802.972534,963.607422 
	C1794.545410,963.607422 1786.161255,963.607422 1777.112061,963.607422 
	C1777.112061,961.878967 1777.112061,960.111450 1777.112061,958.343872 
	C1777.112061,938.020020 1777.114014,917.696228 1777.108643,897.372375 
	C1777.108032,895.207031 1777.125244,893.038940 1777.029053,890.876831 
	C1776.594604,881.113342 1772.259766,875.031738 1764.199219,872.804077 
	C1755.158203,870.305298 1744.947876,873.664917 1740.304321,881.016663 
	C1739.247559,882.689575 1738.910156,885.061890 1738.902100,887.114868 
	C1738.808472,910.770081 1738.842041,934.425842 1738.841797,958.081421 
	C1738.841797,959.871399 1738.841919,961.661438 1738.841919,963.724243 
	C1730.098267,963.724243 1721.843750,963.724243 1712.820557,963.724243 
	C1712.820557,949.649719 1712.820557,935.574829 1712.820557,921.000000 
z"/>
<path fill="#FCFDFC" opacity="1.000000" stroke="none" 
	d="
M221.085831,950.150879 
	C219.597412,955.643982 218.189621,960.737793 216.790695,965.799561 
	C209.994171,965.799561 203.560547,965.799561 196.572571,965.799561 
	C200.515945,951.023804 204.357910,936.627991 208.389343,921.522217 
	C203.494034,921.522217 199.119843,921.522217 194.407990,921.522217 
	C194.407990,914.994324 194.407990,909.071167 194.407990,902.343750 
	C199.574936,902.343750 204.840286,902.471985 210.091415,902.255249 
	C211.437042,902.199707 213.641586,901.319275 213.920105,900.369019 
	C216.903473,890.190063 219.579086,879.921021 222.509140,869.045532 
	C216.827637,869.045532 211.759048,869.045532 206.407837,869.045532 
	C206.407837,862.621521 206.407837,856.706116 206.407837,850.277100 
	C213.334183,850.277100 220.246552,850.277100 227.552383,850.277100 
	C230.785309,838.245911 234.152573,826.638611 236.937714,814.893250 
	C238.044037,810.227600 239.817993,808.133911 244.852814,808.717285 
	C249.103577,809.209778 253.456680,808.818726 258.732849,808.818726 
	C255.062668,822.800354 251.550629,836.179565 247.965530,849.837036 
	C255.967941,849.837036 263.590210,849.837036 271.807861,849.837036 
	C274.525299,839.762939 277.313782,829.562988 280.023529,819.342163 
	C282.811127,808.827576 282.777496,808.818604 293.454590,808.818665 
	C296.426941,808.818665 299.399292,808.818726 302.939453,808.818726 
	C299.252960,822.770630 295.708679,836.184326 292.059204,849.996155 
	C297.958984,849.996155 303.429749,849.996155 309.302704,849.996155 
	C309.302704,856.339722 309.302704,862.377686 309.302704,868.985413 
	C303.096039,868.985413 296.979309,869.160400 290.879761,868.912720 
	C287.763062,868.786133 286.563080,869.870972 285.866364,872.866638 
	C283.946594,881.121094 281.640564,889.285217 279.527679,897.495483 
	C279.171509,898.879395 279.016144,900.314941 278.659241,902.345215 
	C282.981140,902.345215 286.781158,902.467529 290.568939,902.305298 
	C293.424683,902.182922 294.902710,902.902039 294.753998,906.156799 
	C294.535217,910.945801 294.697601,915.752258 294.697601,921.266357 
	C288.980133,921.266357 283.699738,921.544434 278.465179,921.174561 
	C274.569580,920.899353 272.939667,922.283447 271.978088,926.002991 
	C268.899841,937.910156 265.475922,949.728149 262.172791,961.576965 
	C261.776428,962.998718 261.302399,964.398865 260.853119,965.845215 
	C254.164581,965.845215 247.711105,965.845215 240.774414,965.845215 
	C244.715317,951.004456 248.571838,936.481445 252.610107,921.274109 
	C244.966507,921.274109 238.169388,921.110291 231.395096,921.430054 
	C230.221680,921.485413 228.535065,923.404419 228.123383,924.774475 
	C225.636826,933.049866 223.452118,941.415894 221.085831,950.150879 
M266.362976,871.815186 
	C265.831390,870.872742 265.322449,869.125977 264.764771,869.110291 
	C258.114502,868.923157 251.455551,868.927368 244.803223,869.076477 
	C243.927399,869.096069 242.515091,870.045105 242.297958,870.826660 
	C239.438141,881.121826 236.748276,891.464172 233.869110,902.349487 
	C241.127167,902.349487 247.597794,902.180542 254.053299,902.419556 
	C257.373047,902.542480 258.662689,901.301575 259.415649,898.142395 
	C261.455231,889.585449 263.874146,881.118896 266.362976,871.815186 
z"/>
<path fill="#FCFDFC" opacity="1.000000" stroke="none" 
	d="
M329.281555,893.726013 
	C324.152008,879.819519 319.169006,866.275330 313.959320,852.115051 
	C322.663391,852.115051 330.774078,851.918030 338.856354,852.308228 
	C340.210266,852.373596 342.054352,854.773010 342.635162,856.452515 
	C349.154510,875.304382 355.469025,894.227112 361.844788,913.128723 
	C362.348816,914.623047 362.898712,916.101868 363.745789,918.483337 
	C364.783447,916.177917 365.486786,914.738953 366.088989,913.258789 
	C373.796051,894.315186 381.537109,875.385132 389.134033,856.397339 
	C390.308197,853.462708 391.573212,851.903564 395.168915,851.951355 
	C398.854034,852.000244 400.733887,853.008484 402.168274,856.538940 
	C409.866333,875.485962 417.841522,894.320374 425.733826,913.188354 
	C426.411621,914.808777 427.182983,916.390076 428.321259,918.891296 
	C435.761475,898.349182 443.109436,878.947632 449.707733,859.294434 
	C451.643066,853.530090 454.142456,851.355591 460.159576,851.984375 
	C465.754822,852.569092 471.459229,852.109314 477.800476,852.109314 
	C477.229675,853.933594 476.834595,855.419006 476.305359,856.854919 
	C463.483795,891.642273 450.660675,926.429077 437.786163,961.196899 
	C436.929443,963.510498 436.793152,966.468750 432.794800,966.163147 
	C429.133942,965.883362 426.186096,966.224365 424.260529,961.651001 
	C416.130951,942.342957 407.456390,923.264343 398.973267,904.105286 
	C398.188354,902.332458 397.347778,900.584229 396.048889,897.779053 
	C394.719543,900.583862 393.795288,902.430481 392.958282,904.315918 
	C384.389069,923.618408 375.651550,942.849915 367.415253,962.293640 
	C365.572083,966.644897 362.650177,965.743958 359.491943,966.135315 
	C356.020294,966.565552 355.380066,964.383484 354.478271,961.929382 
	C346.164062,939.302551 337.786896,916.698792 329.281555,893.726013 
z"/>
<path fill="#FDFEFD" opacity="1.000000" stroke="none" 
	d="
M1215.949707,844.000000 
	C1215.949707,832.680542 1215.949707,821.861084 1215.949707,810.526123 
	C1224.401611,808.498169 1232.724731,806.501038 1241.767334,804.331360 
	C1241.767334,834.439880 1241.767334,863.928345 1241.767334,895.005798 
	C1246.373291,889.773560 1249.955811,885.744690 1253.493530,881.676941 
	C1261.037109,873.003174 1268.624390,864.365845 1276.044922,855.587646 
	C1278.139526,853.109741 1280.304565,851.924255 1283.678223,852.026794 
	C1292.142212,852.284058 1300.619141,852.111877 1310.383545,852.111877 
	C1297.437378,866.737244 1285.166382,880.599915 1272.768799,894.605530 
	C1287.758911,917.616882 1302.625366,940.438354 1317.967773,963.990479 
	C1307.677368,963.990479 1298.248047,964.148376 1288.835571,963.821899 
	C1287.406372,963.772339 1285.713989,961.696716 1284.720825,960.180054 
	C1274.692017,944.865662 1264.783447,929.472351 1254.385742,913.397034 
	C1250.210938,917.862793 1246.186768,921.945251 1242.487061,926.303223 
	C1241.699951,927.230347 1241.970093,929.160583 1241.965210,930.629456 
	C1241.928711,941.582153 1241.945435,952.535034 1241.945435,963.741577 
	C1233.199463,963.741577 1224.937744,963.741577 1215.949707,963.741577 
	C1215.949707,923.988647 1215.949707,884.244324 1215.949707,844.000000 
z"/>
<path fill="#FCFDFC" opacity="1.000000" stroke="none" 
	d="
M1423.942139,869.094116 
	C1433.721436,882.169983 1436.264771,896.385742 1433.285767,911.937256 
	C1432.625854,915.382324 1431.296997,916.116089 1428.100586,916.099792 
	C1404.937256,915.981567 1381.773071,916.036438 1358.609131,916.036499 
	C1356.817017,916.036499 1355.024902,916.036499 1352.918091,916.036499 
	C1353.374756,927.046143 1357.453125,935.735474 1367.001709,940.166870 
	C1382.378174,947.302856 1397.376587,945.593140 1411.748779,935.467285 
	C1414.685547,941.179199 1417.830811,946.943115 1420.527100,952.909790 
	C1420.946899,953.838562 1419.676636,956.497009 1418.578491,956.985352 
	C1412.544067,959.668823 1406.491577,962.640442 1400.122925,964.172729 
	C1388.692505,966.922791 1376.967041,967.118103 1365.433716,964.534912 
	C1342.697266,959.442505 1327.784546,941.799622 1326.092163,918.172424 
	C1325.351685,907.834290 1325.370117,897.491577 1328.990234,887.556519 
	C1336.021606,868.258911 1349.366699,855.340332 1369.522827,851.370911 
	C1390.363037,847.266785 1409.283325,851.751099 1423.942139,869.094116 
M1404.795044,883.881104 
	C1398.695312,871.989502 1383.188477,870.143555 1372.298096,873.167664 
	C1362.567627,875.869751 1354.882935,885.926086 1354.655273,895.886719 
	C1372.385864,895.886719 1390.116333,895.886719 1408.729248,895.886719 
	C1407.398682,891.740967 1406.247559,888.154297 1404.795044,883.881104 
z"/>
<path fill="#FCFDFC" opacity="1.000000" stroke="none" 
	d="
M527.127625,852.004028 
	C549.605164,847.306641 569.464478,850.753784 584.562927,868.902161 
	C595.324951,881.838196 597.231323,897.052246 593.981140,913.223145 
	C593.345947,916.383667 591.322021,916.040344 589.160828,916.039795 
	C565.999146,916.034424 542.837402,916.036438 519.675720,916.036499 
	C517.878418,916.036499 516.081116,916.036499 513.913513,916.036499 
	C514.191833,926.607849 518.014404,935.053223 526.967285,939.634827 
	C542.557068,947.612976 557.817627,945.525696 572.721252,935.562622 
	C575.694275,941.370667 578.808350,947.159485 581.538818,953.124023 
	C581.923523,953.964294 580.760315,956.399292 579.758728,956.842773 
	C573.718933,959.517090 567.690979,962.524353 561.332092,964.104553 
	C549.912903,966.942200 538.182739,967.099670 526.644531,964.610107 
	C503.912323,959.705139 488.552521,941.978149 487.190857,918.464111 
	C486.695190,909.904541 486.750397,900.966370 488.653442,892.683105 
	C493.384674,872.089172 506.620056,858.665344 527.127625,852.004028 
M555.491455,896.226074 
	C559.928345,896.226074 564.365234,896.226074 568.812805,896.226074 
	C568.310669,882.029907 559.147888,872.780457 545.443054,872.026917 
	C528.668884,871.104492 517.509521,879.841919 515.206299,896.226257 
	C528.351990,896.226257 541.423462,896.226257 555.491455,896.226074 
z"/>
<path fill="#FCFDFC" opacity="1.000000" stroke="none" 
	d="
M854.307190,857.636292 
	C864.932556,864.526245 868.755432,875.030884 869.806519,886.336243 
	C871.005005,899.227722 870.790161,912.249207 871.241028,925.212402 
	C871.414551,930.199402 871.604980,935.191650 872.009827,940.163452 
	C872.602051,947.438171 874.599792,951.819031 879.860779,958.142151 
	C877.218506,964.099182 872.125488,965.647766 866.135620,966.062439 
	C856.779907,966.710205 851.942871,960.924133 847.867554,953.622314 
	C835.978821,965.747803 821.412476,967.826599 805.672607,964.990479 
	C787.785217,961.767395 777.057495,947.551392 778.542725,929.433533 
	C780.206238,909.140930 792.570251,895.849548 814.450073,892.163452 
	C824.180237,890.524231 834.191406,890.552917 844.511414,889.792419 
	C845.973389,884.140442 841.571899,876.717224 833.511963,874.028137 
	C822.696594,870.419861 811.849609,871.619202 801.113647,874.733276 
	C799.539734,875.189758 797.995850,875.749756 795.725464,876.496155 
	C793.861023,869.839478 792.055786,863.394226 790.063049,856.279297 
	C811.801331,848.527466 832.964600,846.518372 854.307190,857.636292 
M804.676697,929.582703 
	C805.002075,938.803772 808.168335,943.677246 815.877869,944.619263 
	C821.032959,945.249023 826.497498,944.826965 831.621460,943.833496 
	C837.281250,942.736084 841.920349,938.973083 843.176819,933.280212 
	C844.745972,926.171082 845.025513,918.777283 845.842896,911.671265 
	C834.929932,909.117249 825.591614,909.720154 816.515808,913.056946 
	C809.358521,915.688354 805.036743,920.747498 804.676697,929.582703 
z"/>
<path fill="#FCFDFC" opacity="1.000000" stroke="none" 
	d="
M1539.767212,859.467957 
	C1540.287842,857.879272 1540.637817,855.909546 1541.589722,855.554871 
	C1560.860840,848.374023 1580.289551,847.347229 1599.433228,855.684937 
	C1613.216919,861.688232 1617.558105,874.287903 1618.826660,887.797791 
	C1620.006470,900.362793 1619.686035,913.066589 1620.091675,925.707153 
	C1620.246460,930.526611 1620.408081,935.357544 1620.878540,940.152588 
	C1621.697388,948.498291 1623.355713,952.081665 1628.668091,958.118591 
	C1625.776367,964.482544 1620.273438,965.892151 1613.938232,966.076782 
	C1605.003662,966.337158 1600.557495,960.569336 1596.665894,953.525513 
	C1585.570801,965.188782 1571.680176,967.613831 1556.593994,965.332092 
	C1542.176270,963.151367 1531.517456,955.839539 1528.345581,940.958313 
	C1524.971802,925.128357 1528.481567,910.937866 1542.199585,900.985779 
	C1555.834595,891.093811 1571.644287,889.462585 1587.928833,890.556458 
	C1589.713867,890.676453 1591.485107,891.000916 1593.263916,891.230713 
	C1594.199707,883.081665 1590.014160,876.514648 1581.959106,873.914429 
	C1571.278442,870.466553 1560.597778,871.649841 1550.019897,874.699219 
	C1548.295654,875.196289 1546.588013,875.750732 1544.485474,876.397827 
	C1542.891846,870.671875 1541.384277,865.255432 1539.767212,859.467957 
M1564.891357,913.143494 
	C1563.035156,914.241394 1560.964844,915.092102 1559.361328,916.481506 
	C1553.618652,921.457214 1552.306519,927.865173 1553.923218,935.050598 
	C1555.222412,940.825684 1559.296997,943.975464 1564.735474,944.680237 
	C1569.280762,945.269165 1574.093018,945.182434 1578.601074,944.366699 
	C1586.535278,942.931152 1591.816162,937.929565 1593.092896,929.853027 
	C1594.038696,923.869690 1593.981079,917.727722 1594.372192,911.630432 
	C1584.076050,909.097351 1574.800537,909.820312 1564.891357,913.143494 
z"/>
<path fill="#FCFDFC" opacity="1.000000" stroke="none" 
	d="
M2052.167969,864.213806 
	C2037.949829,901.557312 2023.334595,938.344666 2009.978882,975.583801 
	C2002.895142,995.335144 1988.433838,1003.658752 1969.426636,1007.005615 
	C1966.486694,1007.523254 1963.476807,1007.661743 1960.493042,1007.898193 
	C1959.701172,1007.960876 1958.886353,1007.735901 1957.795898,1007.609924 
	C1957.795898,1000.193787 1957.795898,992.912781 1957.795898,985.394043 
	C1963.170410,984.631958 1968.610596,984.205627 1973.887695,983.041138 
	C1985.150269,980.555847 1989.083496,975.478027 1986.830322,964.148987 
	C1984.996582,954.929077 1981.832397,945.880310 1978.404785,937.088379 
	C1968.017334,910.444641 1957.213013,883.963440 1946.582153,857.414490 
	C1945.981079,855.913330 1945.479370,854.372253 1944.669067,852.120422 
	C1953.330811,852.120422 1961.415649,851.975525 1969.483521,852.278870 
	C1970.674561,852.323608 1972.292847,854.288635 1972.858032,855.706177 
	C1981.725220,877.944824 1990.447998,900.240967 1999.218262,922.518250 
	C1999.929199,924.324036 2000.743530,926.089050 2001.897949,928.776367 
	C2002.834351,926.509460 2003.491821,925.086182 2004.019287,923.616272 
	C2012.048462,901.239929 2020.141968,878.885864 2027.991455,856.446411 
	C2029.204224,852.979431 2030.906494,851.893250 2034.455933,852.028748 
	C2041.563232,852.299988 2048.688232,852.109314 2056.706055,852.109314 
	C2055.057617,856.494446 2053.676025,860.169983 2052.167969,864.213806 
z"/>
<path fill="#FDFDFC" opacity="1.000000" stroke="none" 
	d="
M989.082153,954.959229 
	C989.082214,958.091858 989.082214,960.730286 989.082214,963.684265 
	C980.355896,963.684265 971.976440,963.684265 963.340881,963.684265 
	C963.340881,926.582947 963.340881,889.681396 963.340881,852.138000 
	C969.090149,852.138000 974.698242,851.993896 980.285461,852.271423 
	C981.286499,852.321106 982.434509,853.977478 983.104675,855.130310 
	C984.350891,857.274109 985.295105,859.593445 986.646301,862.430176 
	C994.091736,854.292847 1003.437866,850.819153 1013.860474,850.161499 
	C1040.981079,848.450134 1058.821289,862.858459 1060.454102,889.969482 
	C1061.833740,912.878174 1060.845947,935.929443 1060.905151,958.917603 
	C1060.908936,960.388306 1060.905640,961.858948 1060.905640,963.665161 
	C1052.169067,963.665161 1043.790894,963.665161 1034.888428,963.665161 
	C1034.888428,959.917480 1034.888428,956.299438 1034.888428,952.681396 
	C1034.888062,935.689087 1034.927612,918.696594 1034.853882,901.704590 
	C1034.838745,898.221558 1034.505615,894.728821 1034.135254,891.260193 
	C1032.359741,874.629700 1020.409058,870.464661 1007.038757,872.485535 
	C1004.303955,872.898926 1001.601318,874.083374 999.093506,875.333069 
	C992.492065,878.622559 988.474365,882.788757 988.816162,891.504028 
	C989.638000,912.462280 989.082153,933.474487 989.082153,954.959229 
z"/>
<path fill="#FBFDFB" opacity="1.000000" stroke="none" 
	d="
M1487.622559,925.000000 
	C1487.591553,937.822144 1487.563232,950.144287 1487.515747,962.466370 
	C1487.514648,962.770569 1487.301514,963.074036 1487.069702,963.690186 
	C1478.782959,963.690186 1470.385376,963.690186 1461.441162,963.690186 
	C1461.441162,933.905334 1461.441162,904.178223 1461.441162,873.840454 
	C1455.856079,873.840454 1450.791992,873.840454 1445.435059,873.840454 
	C1445.435059,866.476501 1445.435059,859.719910 1445.435059,852.394043 
	C1450.419434,852.394043 1455.490845,852.394043 1461.115356,852.394043 
	C1463.102783,833.063660 1469.157715,816.486511 1488.591797,808.845703 
	C1498.969238,804.765503 1515.284424,805.916504 1525.262085,811.015381 
	C1524.229736,813.745239 1523.202759,816.527222 1522.126343,819.290100 
	C1520.751221,822.820007 1519.336182,826.334351 1517.877686,830.007935 
	C1509.709351,828.148560 1501.673462,824.846069 1494.468140,831.512390 
	C1488.668579,836.878235 1486.781494,843.708923 1487.133179,851.964355 
	C1494.662598,851.964355 1502.060425,851.964355 1509.754639,851.964355 
	C1509.754639,859.427307 1509.754639,866.308228 1509.754639,873.719727 
	C1502.465698,873.719727 1495.382812,873.719727 1487.622803,873.719727 
	C1487.622803,890.992737 1487.622803,907.746338 1487.622559,925.000000 
z"/>
<path fill="#FCFDFC" opacity="1.000000" stroke="none" 
	d="
M680.870361,940.260254 
	C680.981323,946.964661 681.167236,953.301758 680.867981,959.615845 
	C680.798401,961.083679 679.163696,963.639282 678.102051,963.718323 
	C667.544067,964.504333 656.794373,966.251160 646.413269,965.037292 
	C631.296936,963.269958 621.746155,952.075134 621.088867,936.741455 
	C620.312073,918.621704 620.574341,900.457336 620.395874,882.312195 
	C620.368225,879.498230 620.391968,876.683655 620.391968,873.260925 
	C616.116150,873.260925 612.221497,873.260925 608.034424,873.260925 
	C608.034424,866.063904 608.034424,859.477478 608.034424,852.270020 
	C611.928955,852.270020 615.820557,852.270020 620.392395,852.270020 
	C620.392395,845.574036 620.535461,839.476440 620.331055,833.390564 
	C620.231201,830.416321 621.234924,828.917847 624.088562,827.952698 
	C631.429871,825.469788 638.666748,822.677979 646.509766,819.802734 
	C646.509766,830.729248 646.509766,840.990295 646.509766,851.906616 
	C656.753784,851.906616 666.626526,851.906616 676.795166,851.906616 
	C676.795166,859.146301 676.795166,865.732971 676.795166,872.995605 
	C667.016968,872.995605 657.141541,872.995605 646.655396,872.995605 
	C646.655396,876.100647 646.655151,878.543152 646.655457,880.985596 
	C646.657410,894.475952 646.659424,907.966370 646.661804,921.456726 
	C646.661865,921.789795 646.680786,922.123596 646.666199,922.455933 
	C645.623901,946.185608 661.228882,946.716797 676.179138,941.422546 
	C677.699829,940.883972 679.238342,940.396057 680.870361,940.260254 
z"/>
<path fill="#FCFDFC" opacity="1.000000" stroke="none" 
	d="
M1129.949951,953.843628 
	C1130.207764,955.157654 1130.596436,956.631104 1130.036499,957.475891 
	C1125.593750,964.178040 1115.502319,967.679565 1106.894409,965.705566 
	C1099.829224,964.085327 1095.157349,958.111145 1094.132202,949.056335 
	C1093.777466,945.922546 1093.777588,942.737976 1093.775879,939.576477 
	C1093.753784,898.274170 1093.833862,856.971619 1093.647339,815.670105 
	C1093.628418,811.481262 1094.831787,809.827759 1098.863525,809.085571 
	C1105.693970,807.828247 1112.423340,806.021606 1119.791504,804.307251 
	C1119.791504,806.598877 1119.791504,808.384644 1119.791504,810.170410 
	C1119.792358,849.640747 1119.757202,889.111145 1119.845581,928.581299 
	C1119.855103,932.876770 1120.286255,937.222534 1121.041992,941.452087 
	C1121.988525,946.749329 1124.825195,950.992859 1129.949951,953.843628 
z"/>
<path fill="#FDFEFD" opacity="1.000000" stroke="none" 
	d="
M1929.994141,963.207764 
	C1927.146484,964.215393 1924.682129,965.393005 1922.096436,965.800110 
	C1909.405640,967.797852 1901.921753,961.682678 1900.197021,948.045532 
	C1899.926392,945.906250 1899.952148,943.721069 1899.951416,941.557129 
	C1899.936157,899.401489 1899.935425,857.245911 1899.945312,815.090271 
	C1899.945679,813.623779 1900.088745,812.157227 1900.179688,810.414246 
	C1908.702393,808.406555 1917.039307,806.442627 1925.948730,804.343872 
	C1925.948730,807.066284 1925.948730,809.041870 1925.948730,811.017517 
	C1925.949219,850.173950 1925.927490,889.330383 1925.986450,928.486694 
	C1925.991943,932.128845 1926.304443,935.799988 1926.831299,939.405518 
	C1927.825684,946.209412 1930.905762,951.690369 1938.778687,954.985718 
	C1935.642578,957.965942 1932.981934,960.494263 1929.994141,963.207764 
z"/>
<path fill="#FCFDFC" opacity="1.000000" stroke="none" 
	d="
M714.991089,852.109985 
	C719.122437,852.110046 722.759583,852.110046 726.926270,852.110046 
	C726.926270,855.332092 726.926270,858.217468 726.926270,861.993958 
	C742.158875,848.127258 758.554077,847.563721 776.786743,853.905334 
	C772.918152,861.748169 769.415527,868.849121 765.774170,876.231323 
	C764.462463,875.674133 763.430908,875.270264 762.427917,874.804810 
	C746.894958,867.596863 731.485168,875.596252 728.038879,892.773438 
	C727.421448,895.850891 727.142395,899.044739 727.128479,902.186707 
	C727.045654,920.843323 727.086914,939.500427 727.086426,958.157410 
	C727.086426,959.947815 727.086426,961.738220 727.086426,963.754395 
	C718.327515,963.754395 710.065979,963.754395 701.446777,963.754395 
	C701.446777,926.679993 701.446777,889.660461 701.446777,852.109985 
	C705.922913,852.109985 710.209900,852.109985 714.991089,852.109985 
z"/>
<path fill="#FBFDFA" opacity="1.000000" stroke="none" 
	d="
M1155.036621,852.102539 
	C1165.337280,852.102539 1175.144897,852.102539 1185.334351,852.102539 
	C1185.334351,889.426086 1185.334351,926.435791 1185.334351,963.728455 
	C1176.664062,963.728455 1168.117554,963.728455 1159.076782,963.728455 
	C1159.076782,933.753479 1159.076782,904.039978 1159.076782,873.894531 
	C1154.340088,873.894531 1150.079224,873.894531 1145.407715,873.894531 
	C1145.407715,866.598267 1145.407715,859.718079 1145.407715,852.102478 
	C1148.358154,852.102478 1151.450806,852.102478 1155.036621,852.102539 
z"/>
<path fill="#FBFDFA" opacity="1.000000" stroke="none" 
	d="
M892.288696,872.454956 
	C892.176575,865.566956 892.176575,859.119385 892.176575,852.390869 
	C905.891907,852.390869 919.112854,852.390869 932.629822,852.390869 
	C932.629822,889.491821 932.629822,926.378479 932.629822,963.638062 
	C924.081726,963.638062 915.525696,963.638062 906.430176,963.638062 
	C906.430176,933.944153 906.430176,904.222900 906.430176,874.341125 
	C901.414001,873.824158 896.907410,873.359741 892.288696,872.454956 
z"/>
<path fill="#FDFEFD" opacity="1.000000" stroke="none" 
	d="
M1865.064087,960.805786 
	C1864.070068,962.190918 1863.110107,963.831909 1862.080444,963.876648 
	C1856.260498,964.129822 1850.423828,964.000305 1844.592896,964.001038 
	C1842.940552,964.001221 1841.288086,964.001038 1838.925537,964.001038 
	C1838.925537,933.921265 1838.925537,904.075928 1838.925537,873.756836 
	C1833.954224,873.756836 1829.688110,873.756836 1825.038696,873.756836 
	C1825.038696,866.415649 1825.038696,859.551208 1825.038696,852.397644 
	C1838.294556,852.397644 1851.369507,852.397644 1865.065918,852.397644 
	C1865.065918,888.478577 1865.065918,924.401550 1865.064087,960.805786 
z"/>
<path fill="#FBFDFB" opacity="1.000000" stroke="none" 
	d="
M1176.322510,809.133179 
	C1184.697021,812.565735 1188.848877,818.994141 1187.627808,826.083252 
	C1186.407104,833.170227 1180.663818,838.541077 1173.828003,838.988281 
	C1165.011963,839.565002 1157.510498,832.764954 1157.385864,824.083923 
	C1157.263428,815.551025 1164.127808,808.819214 1172.936890,808.856140 
	C1173.929077,808.860291 1174.920654,808.984680 1176.322510,809.133179 
z"/>
<path fill="#FBFDFB" opacity="1.000000" stroke="none" 
	d="
M1863.233887,834.177368 
	C1858.058716,839.256714 1852.255981,840.440186 1846.053345,837.745728 
	C1840.462402,835.317017 1837.276489,830.730591 1837.039185,824.517456 
	C1836.794189,818.103943 1839.734619,813.320190 1845.339966,810.328796 
	C1851.355347,807.118530 1858.862671,808.684509 1863.473389,813.877319 
	C1868.435303,819.465393 1868.441162,826.915161 1863.233887,834.177368 
z"/>
<path fill="#FBFDFB" opacity="1.000000" stroke="none" 
	d="
M929.476379,835.586365 
	C921.402649,840.765503 913.490295,839.916077 908.221191,833.571045 
	C903.504639,827.891663 903.613464,819.447021 908.474487,813.924500 
	C914.054993,807.584534 923.643982,806.951721 929.885681,812.511414 
	C936.721985,818.600830 936.672302,827.862061 929.476379,835.586365 
z"/>
<path fill="#67BD52" opacity="1.000000" stroke="none" 
	d="
M266.252777,872.215820 
	C263.874146,881.118896 261.455231,889.585449 259.415649,898.142395 
	C258.662689,901.301575 257.373047,902.542480 254.053299,902.419556 
	C247.597794,902.180542 241.127167,902.349487 233.869110,902.349487 
	C236.748276,891.464172 239.438141,881.121826 242.297958,870.826660 
	C242.515091,870.045105 243.927399,869.096069 244.803223,869.076477 
	C251.455551,868.927368 258.114502,868.923157 264.764771,869.110291 
	C265.322449,869.125977 265.831390,870.872742 266.252777,872.215820 
z"/>
<path fill="#67BD52" opacity="1.000000" stroke="none" 
	d="
M1404.945679,884.224365 
	C1406.247559,888.154297 1407.398682,891.740967 1408.729248,895.886719 
	C1390.116333,895.886719 1372.385864,895.886719 1354.654053,895.891113 
	C1354.882935,885.926086 1362.567627,875.869751 1372.298096,873.167664 
	C1383.188477,870.143555 1398.695312,871.989502 1404.945679,884.224365 
z"/>
<path fill="#67BD52" opacity="1.000000" stroke="none" 
	d="
M554.993225,896.226196 
	C541.423462,896.226257 528.351990,896.226257 515.206299,896.226257 
	C517.509521,879.841919 528.668884,871.104492 545.443054,872.026917 
	C559.147888,872.780457 568.310669,882.029907 568.812805,896.226074 
	C564.365234,896.226074 559.928345,896.226074 554.993225,896.226196 
z"/>
<path fill="#67BD52" opacity="1.000000" stroke="none" 
	d="
M804.698608,929.133789 
	C805.036743,920.747498 809.358521,915.688354 816.515808,913.056946 
	C825.591614,909.720154 834.929932,909.117249 845.842896,911.671265 
	C845.025513,918.777283 844.745972,926.171082 843.176819,933.280212 
	C841.920349,938.973083 837.281250,942.736084 831.621460,943.833496 
	C826.497498,944.826965 821.032959,945.249023 815.877869,944.619263 
	C808.168335,943.677246 805.002075,938.803772 804.698608,929.133789 
z"/>
<path fill="#67BD52" opacity="1.000000" stroke="none" 
	d="
M1565.263184,913.028320 
	C1574.800537,909.820312 1584.076050,909.097351 1594.372192,911.630432 
	C1593.981079,917.727722 1594.038696,923.869690 1593.092896,929.853027 
	C1591.816162,937.929565 1586.535278,942.931152 1578.601074,944.366699 
	C1574.093018,945.182434 1569.280762,945.269165 1564.735474,944.680237 
	C1559.296997,943.975464 1555.222412,940.825684 1553.923218,935.050598 
	C1552.306519,927.865173 1553.618652,921.457214 1559.361328,916.481506 
	C1560.964844,915.092102 1563.035156,914.241394 1565.263184,913.028320 
z"/>
</svg>